<svg width="144" height="128" viewBox="0 0 144 128" fill="none" xmlns="http://www.w3.org/2000/svg">
<g filter="url(#filter0_dd_1406_407)">
<path d="M47.6771 43.4004L49.5522 33.7955L22.222 28.4599C21.05 34.463 24.5908 38.8934 28.0389 39.5665L47.6771 43.4004Z" fill="url(#paint0_linear_1406_407)"/>
<path d="M47.3992 43.5879L49.2743 33.983L22.6418 28.7837C21.4699 34.7867 25.0106 39.2171 28.4588 39.8903L47.3992 43.5879Z" stroke="url(#paint1_linear_1406_407)" stroke-width="0.543681"/>
<path d="M47.8578 52.3691L49.7329 42.7642L27.0546 38.3369C25.8827 44.3399 29.4234 48.7703 32.8715 49.4435L47.8578 52.3691Z" fill="url(#paint2_linear_1406_407)"/>
<path d="M47.8578 52.3691L49.7329 42.7642L27.0546 38.3369C25.8827 44.3399 29.4234 48.7703 32.8715 49.4435L47.8578 52.3691Z" stroke="url(#paint3_linear_1406_407)" stroke-width="0.543681"/>
<path d="M54.1952 62.4688L56.0703 52.8638L33.392 48.4365C32.2201 54.4395 35.7608 58.8699 39.2089 59.5431L54.1952 62.4688Z" fill="url(#paint4_linear_1406_407)"/>
<path d="M54.1952 62.4688L56.0703 52.8638L33.392 48.4365C32.2201 54.4395 35.7608 58.8699 39.2089 59.5431L54.1952 62.4688Z" stroke="url(#paint5_linear_1406_407)" stroke-width="0.543681"/>
<g filter="url(#filter1_d_1406_407)">
<path d="M49.0344 86.5267V65.502H61.2394V93.5851L49.4058 87.1514C49.1769 87.0269 49.0344 86.7873 49.0344 86.5267Z" fill="#ECD8BA"/>
<path d="M49.0344 86.5267V65.502H61.2394V93.5851L49.4058 87.1514C49.1769 87.0269 49.0344 86.7873 49.0344 86.5267Z" stroke="url(#paint6_linear_1406_407)" stroke-width="0.236989"/>
</g>
<path fill-rule="evenodd" clip-rule="evenodd" d="M50.3779 85.9156V76.166H50.2193V86.0476L50.2856 86.0587C50.5048 86.0952 50.7485 86.2249 50.9476 86.4145C51.1464 86.6038 51.2936 86.8461 51.3301 87.1016L51.3361 87.144L57.7509 90.1484V79.419H57.5923V89.899L51.48 87.0363C51.4279 86.7537 51.2639 86.4968 51.0569 86.2996C50.8584 86.1105 50.6143 85.9708 50.3779 85.9156Z" fill="url(#paint7_linear_1406_407)"/>
<path fill-rule="evenodd" clip-rule="evenodd" d="M57.5834 89.3194C57.7544 89.0304 57.7641 88.6203 57.7509 88.3555L57.5925 88.3634C57.6057 88.627 57.5917 88.9939 57.4469 89.2387C57.3767 89.3574 57.2774 89.4447 57.1344 89.4806C56.9889 89.5172 56.7879 89.503 56.5113 89.3954L56.4538 89.5432C56.7481 89.6576 56.9844 89.6818 57.173 89.6344C57.3642 89.5864 57.4957 89.4677 57.5834 89.3194Z" fill="#D4B195"/>
<g filter="url(#filter2_d_1406_407)">
<path d="M95.1288 86.5267V65.502H82.9239V93.5851L94.7574 87.1514C94.9863 87.0269 95.1288 86.7873 95.1288 86.5267Z" fill="#ECD8BA"/>
<path d="M95.1288 86.5267V65.502H82.9239V93.5851L94.7574 87.1514C94.9863 87.0269 95.1288 86.7873 95.1288 86.5267Z" stroke="url(#paint8_linear_1406_407)" stroke-width="0.236989"/>
</g>
<path fill-rule="evenodd" clip-rule="evenodd" d="M93.7853 85.9156V76.166H93.9439V86.0476L93.8776 86.0587C93.6584 86.0952 93.4147 86.2249 93.2156 86.4145C93.0168 86.6038 92.8696 86.8461 92.8331 87.1016L92.8271 87.144L86.4124 90.1484V79.419H86.5709V89.899L92.6832 87.0363C92.7353 86.7537 92.8993 86.4968 93.1063 86.2996C93.3048 86.1105 93.5489 85.9708 93.7853 85.9156Z" fill="url(#paint9_linear_1406_407)"/>
<path fill-rule="evenodd" clip-rule="evenodd" d="M86.5798 89.3194C86.4088 89.0304 86.3991 88.6203 86.4123 88.3555L86.5707 88.3634C86.5575 88.627 86.5715 88.9939 86.7163 89.2387C86.7865 89.3574 86.8858 89.4447 87.0288 89.4806C87.1743 89.5172 87.3753 89.503 87.6519 89.3954L87.7094 89.5432C87.4151 89.6576 87.1788 89.6818 86.9902 89.6344C86.799 89.5864 86.6675 89.4677 86.5798 89.3194Z" fill="#D4B195"/>
<path d="M96.3229 43.7109L94.4478 34.106L121.778 28.7705C122.95 34.7736 119.409 39.2039 115.961 39.8771L96.3229 43.7109Z" fill="url(#paint10_linear_1406_407)"/>
<path d="M96.6008 43.8984L94.7257 34.2935L121.358 29.0942C122.53 35.0973 118.989 39.5276 115.541 40.2008L96.6008 43.8984Z" stroke="url(#paint11_linear_1406_407)" stroke-width="0.543681"/>
<path d="M96.1422 52.6797L94.2671 43.0748L116.945 38.6474C118.117 44.6505 114.577 49.0808 111.128 49.754L96.1422 52.6797Z" fill="url(#paint12_linear_1406_407)"/>
<path d="M96.1422 52.6797L94.2671 43.0748L116.945 38.6474C118.117 44.6505 114.577 49.0808 111.128 49.754L96.1422 52.6797Z" stroke="url(#paint13_linear_1406_407)" stroke-width="0.543681"/>
<path d="M89.8048 62.7793L87.9297 53.1744L110.608 48.747C111.78 54.7501 108.239 59.1804 104.791 59.8536L89.8048 62.7793Z" fill="url(#paint14_linear_1406_407)"/>
<path d="M89.8048 62.7793L87.9297 53.1744L110.608 48.747C111.78 54.7501 108.239 59.1804 104.791 59.8536L89.8048 62.7793Z" stroke="url(#paint15_linear_1406_407)" stroke-width="0.543681"/>
<g filter="url(#filter3_d_1406_407)">
<path d="M58.9879 64.3164H85.0567V97.4204L72.1673 103.973C71.9721 104.072 71.7411 104.071 71.5462 103.972L58.9879 97.5341V64.3164Z" fill="url(#paint16_linear_1406_407)"/>
<path d="M58.9879 64.3164H85.0567V97.4204L72.1673 103.973C71.9721 104.072 71.7411 104.071 71.5462 103.972L58.9879 97.5341V64.3164Z" stroke="url(#paint17_linear_1406_407)" stroke-width="0.473978"/>
</g>
<path fill-rule="evenodd" clip-rule="evenodd" d="M75.8141 101.882L72.1672 103.736C71.972 103.835 71.7411 103.835 71.5462 103.735L67.7565 101.792V77.5879H75.8141V101.882Z" fill="url(#paint18_linear_1406_407)"/>
<path fill-rule="evenodd" clip-rule="evenodd" d="M60.4098 82.0898H60.7874V96.9063L71.9287 102.665L83.2571 96.9057V82.0898H83.6347V97.04L71.927 102.945L60.4098 97.0394V82.0898Z" fill="url(#paint19_linear_1406_407)"/>
<path fill-rule="evenodd" clip-rule="evenodd" d="M72.0062 97.4941V101.794H71.8002V97.4941H72.0062Z" fill="url(#paint20_linear_1406_407)"/>
<path fill-rule="evenodd" clip-rule="evenodd" d="M71.2859 100.268C70.8758 100.741 70.3763 100.847 70.0323 100.789L70.0662 100.586C70.3403 100.632 70.7677 100.552 71.1302 100.134C71.4941 99.7138 71.8003 98.9437 71.8003 97.5977H72.0063C72.0063 98.9708 71.6944 99.7972 71.2859 100.268Z" fill="url(#paint21_linear_1406_407)"/>
<path fill-rule="evenodd" clip-rule="evenodd" d="M72.5208 100.268C72.9308 100.741 73.4303 100.847 73.7743 100.789L73.7404 100.586C73.4664 100.632 73.0389 100.552 72.6764 100.134C72.3125 99.7138 72.0063 98.9437 72.0063 97.5977H71.8003C71.8003 98.9708 72.1122 99.7972 72.5208 100.268Z" fill="url(#paint22_linear_1406_407)"/>
<path fill-rule="evenodd" clip-rule="evenodd" d="M71.86 101.887L69.5339 100.583L70.0489 100.583L71.9031 101.68L73.757 100.574H74.2116L71.9455 101.887C71.9184 101.899 71.8871 101.899 71.86 101.887Z" fill="url(#paint23_linear_1406_407)"/>
<g filter="url(#filter4_d_1406_407)">
<path d="M70.0971 21.0473L44.5023 34.9706C43.2058 35.6759 42.3987 37.0337 42.3987 38.5096L42.3987 70.3368C42.3987 71.8128 43.2058 73.1706 44.5023 73.8759L70.0971 87.7992C71.2975 88.4522 72.7471 88.4522 73.9475 87.7992L99.5423 73.8759C100.839 73.1706 101.646 71.8128 101.646 70.3368L101.646 38.5097C101.646 37.0337 100.839 35.6759 99.5423 34.9706L73.9475 21.0473C72.7471 20.3943 71.2975 20.3943 70.0971 21.0473Z" fill="url(#paint24_linear_1406_407)"/>
<path d="M70.0688 26.2562L48.9972 37.719C47.7055 38.4216 46.9015 39.7743 46.9015 41.2447L46.9015 67.4803C46.9015 68.9507 47.7055 70.3034 48.9972 71.0061L70.0688 82.4688C71.2647 83.1194 72.7089 83.1194 73.9048 82.4688L94.9764 71.0061C96.2681 70.3034 97.0721 68.9507 97.0721 67.4803L97.0721 41.2447C97.0721 39.7743 96.2681 38.4217 94.9764 37.719L73.9048 26.2562C72.7089 25.6057 71.2647 25.6057 70.0688 26.2562Z" fill="url(#paint25_linear_1406_407)"/>
<g filter="url(#filter5_f_1406_407)">
<path d="M70.0688 26.2562L48.9972 37.719C47.7055 38.4216 46.9015 39.7743 46.9015 41.2447L46.9015 67.4803C46.9015 68.9507 47.7055 70.3034 48.9972 71.0061L70.0688 82.4688C71.2647 83.1194 72.7089 83.1194 73.9048 82.4688L94.9764 71.0061C96.2681 70.3034 97.0721 68.9507 97.0721 67.4803L97.0721 41.2447C97.0721 39.7743 96.2681 38.4217 94.9764 37.719L73.9048 26.2562C72.7089 25.6057 71.2647 25.6057 70.0688 26.2562Z" stroke="url(#paint26_linear_1406_407)" stroke-width="0.236989"/>
</g>
<g opacity="0.5">
<mask id="mask0_1406_407" style="mask-type:alpha" maskUnits="userSpaceOnUse" x="49" y="28" width="47" height="53">
<path d="M70.3177 28.5749L51.0292 39.0582C49.7998 39.7264 49.0344 41.0135 49.0344 42.4126L49.0344 66.4073C49.0344 67.8065 49.7998 69.0936 51.0292 69.7617L70.3177 80.2451C71.4546 80.863 72.8271 80.863 73.964 80.2451L93.2525 69.7617C94.4819 69.0936 95.2473 67.8065 95.2473 66.4073L95.2473 42.4126C95.2473 41.0135 94.4819 39.7264 93.2525 39.0582L73.964 28.5749C72.8271 27.957 71.4546 27.957 70.3177 28.5749Z" fill="#A6D3DE"/>
</mask>
<g mask="url(#mask0_1406_407)">
<path d="M70.3177 28.5749L51.0292 39.0582C49.7998 39.7264 49.0344 41.0135 49.0344 42.4126L49.0344 66.4073C49.0344 67.8065 49.7998 69.0936 51.0292 69.7617L70.3177 80.2451C71.4546 80.863 72.8271 80.863 73.964 80.2451L93.2525 69.7617C94.4819 69.0936 95.2473 67.8065 95.2473 66.4073L95.2473 42.4126C95.2473 41.0135 94.4819 39.7264 93.2525 39.0582L73.964 28.5749C72.8271 27.957 71.4546 27.957 70.3177 28.5749Z" fill="url(#paint27_radial_1406_407)"/>
<path opacity="0.5" d="M68.2781 82.2956L67.3602 26.5215H76.9215L76.0036 82.2956H68.2781Z" fill="url(#paint28_linear_1406_407)"/>
<path opacity="0.5" d="M68.1551 81.8019L39.4731 33.959L47.7535 29.1783L74.8456 77.9391L68.1551 81.8019Z" fill="url(#paint29_linear_1406_407)"/>
<path opacity="0.5" d="M67.3583 77.9385L94.4504 29.1777L102.731 33.9584L74.0488 81.8012L67.3583 77.9385Z" fill="url(#paint30_linear_1406_407)"/>
<rect x="49.0344" y="51.2207" width="46.2129" height="30.0118" fill="url(#paint31_linear_1406_407)"/>
<g filter="url(#filter6_i_1406_407)">
<path d="M70.3177 28.5749L51.0292 39.0582C49.7998 39.7264 49.0344 41.0135 49.0344 42.4126L49.0344 66.4073C49.0344 67.8065 49.7998 69.0936 51.0292 69.7617L70.3177 80.2451C71.4546 80.863 72.8271 80.863 73.964 80.2451L93.2525 69.7617C94.4819 69.0936 95.2473 67.8065 95.2473 66.4073L95.2473 42.4126C95.2473 41.0135 94.4819 39.7264 93.2525 39.0582L73.964 28.5749C72.8271 27.957 71.4546 27.957 70.3177 28.5749Z" fill="#6052B4" fill-opacity="0.01"/>
</g>
</g>
</g>
</g>
</g>
<defs>
<filter id="filter0_dd_1406_407" x="0.228998" y="0.243419" width="143.542" height="127.255" filterUnits="userSpaceOnUse" color-interpolation-filters="sRGB">
<feFlood flood-opacity="0" result="BackgroundImageFix"/>
<feColorMatrix in="SourceAlpha" type="matrix" values="0 0 0 0 0 0 0 0 0 0 0 0 0 0 0 0 0 0 127 0" result="hardAlpha"/>
<feOffset/>
<feGaussianBlur stdDeviation="3.62736"/>
<feColorMatrix type="matrix" values="0 0 0 0 0.991667 0 0 0 0 0.801597 0 0 0 0 0.516493 0 0 0 1 0"/>
<feBlend mode="normal" in2="BackgroundImageFix" result="effect1_dropShadow_1406_407"/>
<feColorMatrix in="SourceAlpha" type="matrix" values="0 0 0 0 0 0 0 0 0 0 0 0 0 0 0 0 0 0 127 0" result="hardAlpha"/>
<feOffset dy="1.45094"/>
<feGaussianBlur stdDeviation="10.8821"/>
<feColorMatrix type="matrix" values="0 0 0 0 1 0 0 0 0 0.722667 0 0 0 0 0.466667 0 0 0 0.6 0"/>
<feBlend mode="normal" in2="effect1_dropShadow_1406_407" result="effect2_dropShadow_1406_407"/>
<feBlend mode="normal" in="SourceGraphic" in2="effect2_dropShadow_1406_407" result="shape"/>
</filter>
<filter id="filter1_d_1406_407" x="47.02" y="63.4869" width="16.2338" height="32.1942" filterUnits="userSpaceOnUse" color-interpolation-filters="sRGB">
<feFlood flood-opacity="0" result="BackgroundImageFix"/>
<feColorMatrix in="SourceAlpha" type="matrix" values="0 0 0 0 0 0 0 0 0 0 0 0 0 0 0 0 0 0 127 0" result="hardAlpha"/>
<feOffset/>
<feGaussianBlur stdDeviation="0.947956"/>
<feColorMatrix type="matrix" values="0 0 0 0 0.7 0 0 0 0 0.561568 0 0 0 0 0.32375 0 0 0 0.78 0"/>
<feBlend mode="normal" in2="BackgroundImageFix" result="effect1_dropShadow_1406_407"/>
<feBlend mode="normal" in="SourceGraphic" in2="effect1_dropShadow_1406_407" result="shape"/>
</filter>
<filter id="filter2_d_1406_407" x="80.9094" y="63.4869" width="16.2338" height="32.1942" filterUnits="userSpaceOnUse" color-interpolation-filters="sRGB">
<feFlood flood-opacity="0" result="BackgroundImageFix"/>
<feColorMatrix in="SourceAlpha" type="matrix" values="0 0 0 0 0 0 0 0 0 0 0 0 0 0 0 0 0 0 127 0" result="hardAlpha"/>
<feOffset/>
<feGaussianBlur stdDeviation="0.947956"/>
<feColorMatrix type="matrix" values="0 0 0 0 0.7 0 0 0 0 0.561568 0 0 0 0 0.32375 0 0 0 0.78 0"/>
<feBlend mode="normal" in2="BackgroundImageFix" result="effect1_dropShadow_1406_407"/>
<feBlend mode="normal" in="SourceGraphic" in2="effect1_dropShadow_1406_407" result="shape"/>
</filter>
<filter id="filter3_d_1406_407" x="56.8551" y="62.1842" width="30.3345" height="43.9949" filterUnits="userSpaceOnUse" color-interpolation-filters="sRGB">
<feFlood flood-opacity="0" result="BackgroundImageFix"/>
<feColorMatrix in="SourceAlpha" type="matrix" values="0 0 0 0 0 0 0 0 0 0 0 0 0 0 0 0 0 0 127 0" result="hardAlpha"/>
<feOffset/>
<feGaussianBlur stdDeviation="0.947956"/>
<feColorMatrix type="matrix" values="0 0 0 0 0.7 0 0 0 0 0.561568 0 0 0 0 0.32375 0 0 0 0.78 0"/>
<feBlend mode="normal" in2="BackgroundImageFix" result="effect1_dropShadow_1406_407"/>
<feBlend mode="normal" in="SourceGraphic" in2="effect1_dropShadow_1406_407" result="shape"/>
</filter>
<filter id="filter4_d_1406_407" x="40.9767" y="20.5566" width="62.0911" height="71.0503" filterUnits="userSpaceOnUse" color-interpolation-filters="sRGB">
<feFlood flood-opacity="0" result="BackgroundImageFix"/>
<feColorMatrix in="SourceAlpha" type="matrix" values="0 0 0 0 0 0 0 0 0 0 0 0 0 0 0 0 0 0 127 0" result="hardAlpha"/>
<feOffset dy="1.89591"/>
<feGaussianBlur stdDeviation="0.710967"/>
<feColorMatrix type="matrix" values="0 0 0 0 0.4375 0 0 0 0 0.287401 0 0 0 0 0.111198 0 0 0 0.6 0"/>
<feBlend mode="normal" in2="BackgroundImageFix" result="effect1_dropShadow_1406_407"/>
<feBlend mode="normal" in="SourceGraphic" in2="effect1_dropShadow_1406_407" result="shape"/>
</filter>
<filter id="filter5_f_1406_407" x="46.7119" y="25.5793" width="50.5499" height="57.568" filterUnits="userSpaceOnUse" color-interpolation-filters="sRGB">
<feFlood flood-opacity="0" result="BackgroundImageFix"/>
<feBlend mode="normal" in="SourceGraphic" in2="BackgroundImageFix" result="shape"/>
<feGaussianBlur stdDeviation="0.0355483" result="effect1_foregroundBlur_1406_407"/>
</filter>
<filter id="filter6_i_1406_407" x="49.0344" y="28.1113" width="46.2129" height="52.5977" filterUnits="userSpaceOnUse" color-interpolation-filters="sRGB">
<feFlood flood-opacity="0" result="BackgroundImageFix"/>
<feBlend mode="normal" in="SourceGraphic" in2="BackgroundImageFix" result="shape"/>
<feColorMatrix in="SourceAlpha" type="matrix" values="0 0 0 0 0 0 0 0 0 0 0 0 0 0 0 0 0 0 127 0" result="hardAlpha"/>
<feOffset/>
<feGaussianBlur stdDeviation="1.59355"/>
<feComposite in2="hardAlpha" operator="arithmetic" k2="-1" k3="1"/>
<feColorMatrix type="matrix" values="0 0 0 0 0.458333 0 0 0 0 0.256743 0 0 0 0 0.0706597 0 0 0 1 0"/>
<feBlend mode="normal" in2="shape" result="effect1_innerShadow_1406_407"/>
</filter>
<linearGradient id="paint0_linear_1406_407" x1="34.2207" y1="40.7734" x2="27.6718" y2="31.0472" gradientUnits="userSpaceOnUse">
<stop stop-color="#D2A86B"/>
<stop offset="0.875" stop-color="#FFF5DE"/>
</linearGradient>
<linearGradient id="paint1_linear_1406_407" x1="23.9758" y1="29.0441" x2="29.838" y2="40.1595" gradientUnits="userSpaceOnUse">
<stop stop-color="#FFF5DE"/>
<stop offset="0.378992" stop-color="#F5E3C4"/>
<stop offset="0.480868" stop-color="#E6CA9E"/>
<stop offset="0.729174" stop-color="#D2A86B"/>
</linearGradient>
<linearGradient id="paint2_linear_1406_407" x1="39.0533" y1="50.6503" x2="32.5044" y2="40.9241" gradientUnits="userSpaceOnUse">
<stop stop-color="#E0C08E"/>
<stop offset="0.875" stop-color="#FFF5DE"/>
</linearGradient>
<linearGradient id="paint3_linear_1406_407" x1="28.3886" y1="38.5973" x2="41.5692" y2="54.2447" gradientUnits="userSpaceOnUse">
<stop stop-color="#FFF5DE"/>
<stop offset="0.378992" stop-color="#FFF5DE"/>
<stop offset="0.480868" stop-color="#EAD2A9"/>
<stop offset="0.729174" stop-color="#D2A86B"/>
</linearGradient>
<linearGradient id="paint4_linear_1406_407" x1="45.3907" y1="60.7499" x2="38.8418" y2="51.0237" gradientUnits="userSpaceOnUse">
<stop stop-color="#E0C08E"/>
<stop offset="0.875" stop-color="#FFF5DE"/>
</linearGradient>
<linearGradient id="paint5_linear_1406_407" x1="34.726" y1="48.6969" x2="47.9066" y2="64.3443" gradientUnits="userSpaceOnUse">
<stop stop-color="#FFF5DE"/>
<stop offset="0.378992" stop-color="#FFF5DE"/>
<stop offset="0.480868" stop-color="#EAD2A9"/>
<stop offset="0.729174" stop-color="#D2A86B"/>
</linearGradient>
<linearGradient id="paint6_linear_1406_407" x1="49.0344" y1="84.642" x2="61.5649" y2="87.4732" gradientUnits="userSpaceOnUse">
<stop stop-color="#8D664F"/>
<stop offset="0.208702" stop-color="#C49F7D"/>
<stop offset="0.648432" stop-color="#FFF1DC"/>
<stop offset="0.827985" stop-color="#B38368"/>
<stop offset="0.971703" stop-color="#8C5F4C"/>
</linearGradient>
<linearGradient id="paint7_linear_1406_407" x1="50.5748" y1="84.2236" x2="55.1073" y2="82.8724" gradientUnits="userSpaceOnUse">
<stop stop-color="#C7A383"/>
<stop offset="0.309893" stop-color="#D5B198"/>
<stop offset="0.523799" stop-color="#CBA68C"/>
<stop offset="0.77229" stop-color="#BB9478"/>
<stop offset="1" stop-color="#D7B49B"/>
</linearGradient>
<linearGradient id="paint8_linear_1406_407" x1="95.1288" y1="84.642" x2="82.5984" y2="87.4732" gradientUnits="userSpaceOnUse">
<stop stop-color="#8D664F"/>
<stop offset="0.208702" stop-color="#C49F7D"/>
<stop offset="0.648432" stop-color="#FFF1DC"/>
<stop offset="0.827985" stop-color="#B38368"/>
<stop offset="0.971703" stop-color="#8C5F4C"/>
</linearGradient>
<linearGradient id="paint9_linear_1406_407" x1="93.5884" y1="84.2236" x2="89.0559" y2="82.8724" gradientUnits="userSpaceOnUse">
<stop stop-color="#C7A383"/>
<stop offset="0.309893" stop-color="#D5B198"/>
<stop offset="0.523799" stop-color="#CBA68C"/>
<stop offset="0.77229" stop-color="#BB9478"/>
<stop offset="1" stop-color="#D7B49B"/>
</linearGradient>
<linearGradient id="paint10_linear_1406_407" x1="109.779" y1="41.0839" x2="116.328" y2="31.3578" gradientUnits="userSpaceOnUse">
<stop stop-color="#D2A86B"/>
<stop offset="0.875" stop-color="#FFF5DE"/>
</linearGradient>
<linearGradient id="paint11_linear_1406_407" x1="120.024" y1="29.3546" x2="114.162" y2="40.4701" gradientUnits="userSpaceOnUse">
<stop stop-color="#FFF5DE"/>
<stop offset="0.378992" stop-color="#F5E3C4"/>
<stop offset="0.480868" stop-color="#E6CA9E"/>
<stop offset="0.729174" stop-color="#D2A86B"/>
</linearGradient>
<linearGradient id="paint12_linear_1406_407" x1="104.947" y1="50.9608" x2="111.496" y2="41.2347" gradientUnits="userSpaceOnUse">
<stop stop-color="#E0C08E"/>
<stop offset="0.875" stop-color="#FFF5DE"/>
</linearGradient>
<linearGradient id="paint13_linear_1406_407" x1="115.611" y1="38.9078" x2="102.431" y2="54.5552" gradientUnits="userSpaceOnUse">
<stop stop-color="#FFF5DE"/>
<stop offset="0.378992" stop-color="#FFF5DE"/>
<stop offset="0.480868" stop-color="#EAD2A9"/>
<stop offset="0.729174" stop-color="#D2A86B"/>
</linearGradient>
<linearGradient id="paint14_linear_1406_407" x1="98.6093" y1="61.0604" x2="105.158" y2="51.3343" gradientUnits="userSpaceOnUse">
<stop stop-color="#E0C08E"/>
<stop offset="0.875" stop-color="#FFF5DE"/>
</linearGradient>
<linearGradient id="paint15_linear_1406_407" x1="109.274" y1="49.0074" x2="96.0934" y2="64.6548" gradientUnits="userSpaceOnUse">
<stop stop-color="#FFF5DE"/>
<stop offset="0.378992" stop-color="#FFF5DE"/>
<stop offset="0.480868" stop-color="#EAD2A9"/>
<stop offset="0.729174" stop-color="#D2A86B"/>
</linearGradient>
<linearGradient id="paint16_linear_1406_407" x1="72.0223" y1="81.8536" x2="72.0223" y2="104.131" gradientUnits="userSpaceOnUse">
<stop stop-color="#B58D70"/>
<stop offset="0.2286" stop-color="#B58D70"/>
<stop offset="0.47675" stop-color="#D8B59B"/>
<stop offset="0.88344" stop-color="#B58D70"/>
<stop offset="1" stop-color="#B58D70"/>
</linearGradient>
<linearGradient id="paint17_linear_1406_407" x1="58.9879" y1="91.4516" x2="84.1971" y2="100.033" gradientUnits="userSpaceOnUse">
<stop stop-color="#8D664F"/>
<stop offset="0.208702" stop-color="#FFF5E6"/>
<stop offset="0.648432" stop-color="#ECD8BA"/>
<stop offset="0.780206" stop-color="#D0A568"/>
<stop offset="0.971703" stop-color="#8C5F4C"/>
</linearGradient>
<linearGradient id="paint18_linear_1406_407" x1="71.7853" y1="77.5879" x2="71.7853" y2="103.81" gradientUnits="userSpaceOnUse">
<stop stop-color="#DDBFA9"/>
<stop offset="0.22229" stop-color="#DDBFA9"/>
<stop offset="0.669825" stop-color="#EBD4C4"/>
<stop offset="0.898796" stop-color="#DDBFA9"/>
<stop offset="1" stop-color="#DDBFA9"/>
</linearGradient>
<linearGradient id="paint19_linear_1406_407" x1="82.5387" y1="94.4936" x2="73.0289" y2="87.125" gradientUnits="userSpaceOnUse">
<stop stop-color="#ECD8BA"/>
<stop offset="0.309893" stop-color="#EBD3AE"/>
<stop offset="0.523799" stop-color="#E2C69C"/>
<stop offset="0.77229" stop-color="#E3C8A0"/>
<stop offset="1" stop-color="#ECD8BA"/>
</linearGradient>
<linearGradient id="paint20_linear_1406_407" x1="71.9032" y1="97.4941" x2="71.9032" y2="101.511" gradientUnits="userSpaceOnUse">
<stop stop-color="#FAECD8"/>
<stop offset="0.491891" stop-color="#F9EBD7"/>
<stop offset="1" stop-color="#ECD5B4"/>
</linearGradient>
<linearGradient id="paint21_linear_1406_407" x1="71.0193" y1="97.5977" x2="71.0193" y2="100.803" gradientUnits="userSpaceOnUse">
<stop stop-color="#F9EBD7"/>
<stop offset="0.479167" stop-color="#FAEDD9"/>
<stop offset="1" stop-color="#F8E9D4"/>
</linearGradient>
<linearGradient id="paint22_linear_1406_407" x1="72.7873" y1="97.5977" x2="72.7873" y2="100.803" gradientUnits="userSpaceOnUse">
<stop stop-color="#FAEDD8"/>
<stop offset="0.479167" stop-color="#FAECD8"/>
<stop offset="1" stop-color="#EAD4B2"/>
</linearGradient>
<linearGradient id="paint23_linear_1406_407" x1="71.6536" y1="101.026" x2="68.9814" y2="101.343" gradientUnits="userSpaceOnUse">
<stop stop-color="#E5CBA6"/>
<stop offset="0.309893" stop-color="#FAEDDA"/>
<stop offset="0.523799" stop-color="#F3E2C9"/>
<stop offset="0.613641" stop-color="#EFDCC0"/>
<stop offset="1" stop-color="#EFDCC0"/>
</linearGradient>
<linearGradient id="paint24_linear_1406_407" x1="59.5804" y1="28.2946" x2="86.2416" y2="81.2617" gradientUnits="userSpaceOnUse">
<stop stop-color="#FFF5DE"/>
<stop offset="1" stop-color="#CFA365"/>
</linearGradient>
<linearGradient id="paint25_linear_1406_407" x1="59.3434" y1="32.678" x2="82.3313" y2="75.0991" gradientUnits="userSpaceOnUse">
<stop stop-color="#D2A86C"/>
<stop offset="1" stop-color="#F8E6C0"/>
</linearGradient>
<linearGradient id="paint26_linear_1406_407" x1="61.8318" y1="31.1376" x2="86.5971" y2="75.6915" gradientUnits="userSpaceOnUse">
<stop stop-color="#FFF6E7"/>
<stop offset="1" stop-color="#FFF8EC"/>
</linearGradient>
<radialGradient id="paint27_radial_1406_407" cx="0" cy="0" r="1" gradientUnits="userSpaceOnUse" gradientTransform="translate(72.1409 54.41) rotate(90) scale(26.826 23.1064)">
<stop stop-color="#FFE4BA"/>
<stop offset="1" stop-color="#DEA44D"/>
</radialGradient>
<linearGradient id="paint28_linear_1406_407" x1="72.1409" y1="26.5215" x2="72.1409" y2="82.2956" gradientUnits="userSpaceOnUse">
<stop stop-color="white"/>
<stop offset="1" stop-color="#F2EDED" stop-opacity="0"/>
</linearGradient>
<linearGradient id="paint29_linear_1406_407" x1="43.6133" y1="31.5687" x2="71.5004" y2="79.8705" gradientUnits="userSpaceOnUse">
<stop stop-color="white"/>
<stop offset="1" stop-color="#F2EDED" stop-opacity="0"/>
</linearGradient>
<linearGradient id="paint30_linear_1406_407" x1="98.5906" y1="31.5681" x2="70.7035" y2="79.8699" gradientUnits="userSpaceOnUse">
<stop stop-color="white"/>
<stop offset="1" stop-color="#F2EDED" stop-opacity="0"/>
</linearGradient>
<linearGradient id="paint31_linear_1406_407" x1="72.1408" y1="64.2347" x2="72.0014" y2="79.373" gradientUnits="userSpaceOnUse">
<stop stop-color="white" stop-opacity="0"/>
<stop offset="1" stop-color="#FFF1E3"/>
</linearGradient>
</defs>
</svg>
