<svg
  viewBox="0 0 24 25"
  fill="none"
  xmlns="http://www.w3.org/2000/svg"
  width="20"
  height="20"
  stroke="#fff"
>
  <path
    d="M9.61249 21.9553C9.87859 22.4208 10.2621 22.8084 10.7247 23.0794C11.1873 23.3504 11.7129 23.4954 12.249 23.4999C12.7852 23.5044 13.3131 23.3683 13.7803 23.1051C14.2474 22.8419 14.6373 22.4609 14.9112 21.9999"
    stroke="white"
    stroke-width="2"
    stroke-linecap="round"
    stroke-linejoin="round"
  />
  <path
    d="M19.7375 11.5V8.425C19.7375 4.45 16.25 1 12.2375 1C10.2622 1.04393 8.37994 1.84821 6.98283 3.24533C5.58571 4.64244 4.78143 6.52467 4.7375 8.5V11.5C4.7375 14.9125 2 15.4375 2 17.35C2 19.075 5.9375 20.425 12.2375 20.425C18.5375 20.425 22.475 19.075 22.475 17.35C22.475 15.4375 19.7375 14.9125 19.7375 11.5Z"
    stroke="white"
    stroke-width="2"
    stroke-linecap="round"
    stroke-linejoin="round"
  />
</svg>
