<svg width="1440" height="1209" viewBox="0 0 1440 1209" fill="none" xmlns="http://www.w3.org/2000/svg">
<path d="M150.219 524.357C182.662 361.347 401.501 220.118 560.352 191.879C743.41 159.356 802.575 284.764 945.02 216.075C1075.01 153.44 1092.15 16.9148 1187.21 -22.1851C1274.58 -58.1143 1404.79 -2.33458 1600.11 359.289" stroke="white" stroke-opacity="0.1" stroke-width="1.07758" stroke-miterlimit="10"/>
<path d="M1588.12 386.479C1395.1 30.1975 1265.04 -28.7325 1176.72 3.79177C1111.25 27.9902 1081.66 98.3198 1027.44 159.21C1000.32 190.403 967.9 215.66 933.091 232.713C819.064 288.662 758.064 224.443 641.218 214.144C611.443 211.421 580.555 212.665 549.192 217.849C389.876 243.636 174.362 370.929 139.066 528.748" stroke="white" stroke-opacity="0.1" stroke-width="1.07758" stroke-miterlimit="10"/>
<path d="M1576.1 413.599C1385.39 62.6759 1255.56 0.619342 1166.45 29.7468C1100.95 51.1636 1070.11 118.646 1015.97 176.949C988.312 207.307 955.973 232.071 921.417 249.353C808.957 305.571 747.439 248.974 630.069 240.29C600.246 238.016 569.477 239.226 538.254 243.901C378.409 267.786 166.28 380.632 128.129 533.282" stroke="white" stroke-opacity="0.1" stroke-width="1.07758" stroke-miterlimit="10"/>
<path d="M1564.13 440.599C1375.77 95.0865 1246.08 29.9424 1156.09 55.6123C1090.5 74.3136 1058.51 138.878 1004.37 194.639C976.238 224.139 944.002 248.418 909.722 265.928C798.726 322.44 736.924 273.39 618.897 266.373C589.019 264.477 558.335 265.631 527.221 269.823C366.894 291.5 158.128 390.208 117.121 537.698" stroke="white" stroke-opacity="0.1" stroke-width="1.07758" stroke-miterlimit="10"/>
<path d="M1552.15 467.729C1366.1 127.424 1236.66 59.2181 1145.71 81.4487C1080.11 97.4497 1046.84 159.13 992.736 212.27C964.099 240.932 931.909 264.761 897.851 282.508C788.315 339.321 726.15 297.856 607.415 292.489C577.538 291.035 547.002 292.158 516.077 295.848C355.238 315.327 149.83 399.937 105.939 542.292" stroke="white" stroke-opacity="0.1" stroke-width="1.07758" stroke-miterlimit="10"/>
<path d="M1540.29 494.73C1356.48 159.643 1227.36 85.7192 1135.34 107.134C1069.66 122.343 1035.19 179.078 981.15 229.816C952.028 257.601 919.884 280.981 886.057 298.983C777.98 356.109 715.503 322.216 596.237 318.493C566.342 317.413 535.913 318.484 505.138 321.7C343.794 338.875 141.733 409.478 94.98 546.745" stroke="white" stroke-opacity="0.1" stroke-width="1.07758" stroke-miterlimit="10"/>
<path d="M1528.21 521.72C1346.84 191.81 1217.83 117.613 1125.02 132.581C1059.44 143.5 1023.48 199.109 969.548 247.306C939.972 274.201 907.868 297.147 874.272 315.404C767.651 372.85 704.786 346.52 584.962 344.446C555.045 343.775 524.716 344.813 494.096 347.558C332.237 362.539 133.537 418.939 83.9161 551.184" stroke="white" stroke-opacity="0.1" stroke-width="1.07758" stroke-miterlimit="10"/>
<path d="M1516.26 548.688C1337.27 223.942 1208.46 146.613 1114.65 158.339C1049.12 166.436 1011.74 218.899 957.949 264.735C927.943 290.715 895.867 313.22 862.493 331.708C757.354 389.496 694.095 370.791 573.694 370.292C545.676 370.21 515.723 370.715 483.064 373.28C320.669 385.986 125.336 428.467 72.8571 555.547" stroke="white" stroke-opacity="0.1" stroke-width="1.07758" stroke-miterlimit="10"/>
<path d="M1504.33 575.565C1327.6 255.96 1199.09 175.726 1104.34 183.681C1038.8 189.209 999.988 238.542 946.313 281.976C915.875 307.037 883.806 329.144 850.642 347.929C746.957 406.053 683.361 394.885 562.344 396.106C534.171 396.38 504.29 396.926 471.921 398.977C309.219 409.396 117.129 437.841 61.7865 559.81" stroke="white" stroke-opacity="0.1" stroke-width="1.07758" stroke-miterlimit="10"/>
<path d="M1492.37 602.387C1317.98 287.901 1189.72 204.737 1093.99 209.114C1028.49 212.092 988.105 258.207 934.804 299.215C903.974 323.338 871.915 345.056 838.971 364.14C736.713 422.609 672.748 419.05 551.153 421.796C522.955 422.402 493.046 422.954 460.965 424.518C297.577 432.582 108.934 446.987 50.7242 563.9" stroke="white" stroke-opacity="0.1" stroke-width="1.07758" stroke-miterlimit="10"/>
<path d="M1480.46 629.173C1308.41 319.719 1180.37 233.663 1083.75 234.306C1018.26 234.757 976.423 277.584 923.28 316.323C892.065 339.469 859.995 360.797 827.259 380.182C726.478 439 662.145 443.035 539.924 447.592C511.566 448.61 481.734 449.121 449.966 450.221C286.069 455.895 100.79 456.309 39.6602 568.165" stroke="white" stroke-opacity="0.1" stroke-width="1.07758" stroke-miterlimit="10"/>
<path d="M1468.56 655.89C1298.82 351.469 1170.98 262.479 1073.39 259.395C1007.89 257.348 964.574 296.836 911.692 333.285C881.294 354.226 850.185 375.438 815.453 396.119C716.123 455.274 651.415 466.977 528.604 473.178C500.14 474.572 470.359 475.048 438.825 475.697C274.417 478.978 92.4772 465.377 28.5009 572.195" stroke="white" stroke-opacity="0.1" stroke-width="1.07758" stroke-miterlimit="10"/>
<path d="M1456.67 682.553C1289.24 383.199 1161.78 291.189 1063.11 284.361C997.614 279.782 952.738 315.891 900.138 350.104C869.098 370.298 837.937 391.114 803.704 411.919C705.815 471.535 640.765 490.783 517.334 498.669C488.76 500.468 459.003 500.915 427.834 501.059C262.944 501.883 84.3127 474.291 17.4618 576.085" stroke="white" stroke-opacity="0.1" stroke-width="1.07758" stroke-miterlimit="10"/>
<path d="M1444.85 709.136C1279.72 414.624 1152.31 319.852 1052.85 309.186C987.343 302.15 940.918 334.768 888.594 366.799C856.89 386.197 825.701 406.642 792.068 427.583C695.604 487.511 630.221 514.52 506.063 524.117C477.358 526.273 447.677 526.679 416.791 526.39C251.393 524.7 76.0975 483.067 6.37006 579.842" stroke="white" stroke-opacity="0.1" stroke-width="1.07758" stroke-miterlimit="10"/>
<path d="M1432.93 735.606C1270.18 445.966 1143.04 348.33 1042.59 333.77C977.043 324.245 929.096 353.335 877.098 383.204C844.731 401.782 813.455 421.926 780.243 443.017C685.271 503.342 619.456 538.056 494.8 549.329C464.769 551.71 435.041 552.403 405.733 551.407C239.866 547.326 67.7982 491.699 -4.72528 583.366" stroke="white" stroke-opacity="0.1" stroke-width="1.07758" stroke-miterlimit="10"/>
<path d="M1421.1 762.006C1260.67 477.2 1133.59 376.596 1032.45 358.147C966.864 346.15 917.372 371.656 865.565 399.444C832.535 417.176 801.224 437.013 768.532 458.268C674.973 519.023 608.797 561.492 483.589 574.435C453.549 577.239 423.871 577.922 394.74 576.48C228.348 569.654 59.6571 500.047 -15.8451 586.619" stroke="white" stroke-opacity="0.1" stroke-width="1.07758" stroke-miterlimit="10"/>
<path d="M1409.29 788.305C1251.21 508.243 1124.15 404.857 1022.15 382.338C956.572 367.9 905.515 389.71 854.103 415.403C820.411 432.263 789.059 451.882 756.862 473.284C664.763 534.48 598.171 584.735 472.275 599.413C442.228 602.606 412.597 603.251 383.646 601.343C216.837 592.012 51.433 508.198 -26.9613 589.854" stroke="white" stroke-opacity="0.1" stroke-width="1.07758" stroke-miterlimit="10"/>
<path d="M1398.04 811.965C1242.33 534.825 1115.51 427.632 1012.49 400.994C946.754 383.97 894.193 402.168 843.045 426.046C808.56 442.124 777.211 461.662 745.474 483.41C654.719 545.482 587.675 604.084 461.048 620.658C430.976 624.26 401.367 624.882 372.578 622.515C205.199 610.505 43.0249 511.829 -38.3523 589.054" stroke="white" stroke-opacity="0.1" stroke-width="1.07758" stroke-miterlimit="10"/>
<path d="M1386.84 835.538C1233.63 561.094 1106.74 450.384 1002.82 419.548C936.979 399.934 882.917 414.394 831.976 436.518C796.87 451.848 765.32 471.288 734.095 493.35C644.673 556.429 577.144 623.436 449.805 641.855C419.707 645.874 390.114 646.471 361.489 643.637C193.538 628.867 34.4707 515.198 -49.7567 587.799" stroke="white" stroke-opacity="0.1" stroke-width="1.07758" stroke-miterlimit="10"/>
<path d="M1375.68 859.107C1224.69 587.652 1097.95 473.192 993.2 437.87C927.206 415.599 871.675 426.182 820.946 446.455C785.159 460.778 753.544 480.341 722.749 502.791C634.687 566.82 566.657 642.413 438.562 662.856C408.436 667.315 378.852 667.887 350.398 664.561C181.903 646.887 26.2049 517.786 -61.1444 585.854" stroke="white" stroke-opacity="0.1" stroke-width="1.07758" stroke-miterlimit="10"/>
<path d="M1364.49 882.728C1215.86 614.404 1089.14 496.362 983.648 456.408C917.522 431.489 860.553 438.053 810.033 456.516C773.563 469.835 741.835 489.467 711.531 512.176C624.779 577.183 556.233 661.525 427.409 683.929C397.252 688.805 367.666 689.352 339.37 685.558C170.478 664.67 17.9049 520.369 -72.4785 583.657" stroke="white" stroke-opacity="0.1" stroke-width="1.07758" stroke-miterlimit="10"/>
<path d="M1353.35 906.446C1115.94 476.279 930.098 423.191 798.888 466.618C655.655 514.019 590.921 672.23 416.031 705.227C210.874 743.903 25.2306 512.875 -83.9071 581.203" stroke="white" stroke-opacity="0.1" stroke-width="1.07758" stroke-miterlimit="10"/>
</svg>
