<?xml version="1.0" encoding="UTF-8"?>
<!DOCTYPE svg PUBLIC "-//W3C//DTD SVG 1.1//EN" "http://www.w3.org/Graphics/SVG/1.1/DTD/svg11.dtd">
<svg xmlns="http://www.w3.org/2000/svg" version="1.1" width="512px" height="512px" style="shape-rendering:geometricPrecision; text-rendering:geometricPrecision; image-rendering:optimizeQuality; fill-rule:evenodd; clip-rule:evenodd" xmlns:xlink="http://www.w3.org/1999/xlink">
<g><path style="opacity:0.981" fill="#fff" d="M 511.5,222.5 C 511.5,289.167 511.5,355.833 511.5,422.5C 508.016,433.483 500.682,440.65 489.5,444C 457.5,444.333 425.5,444.667 393.5,445C 380.471,458.363 367.138,471.363 353.5,484C 350.167,484.667 346.833,484.667 343.5,484C 329.862,471.363 316.529,458.363 303.5,445C 271.5,444.667 239.5,444.333 207.5,444C 193.144,438.967 185.644,428.8 185,413.5C 179.469,419.366 173.635,424.866 167.5,430C 164.167,430.667 160.833,430.667 157.5,430C 143.862,417.363 130.529,404.363 117.5,391C 85.5,390.667 53.5,390.333 21.5,390C 10.3177,386.65 2.98437,379.483 -0.5,368.5C -0.5,301.833 -0.5,235.167 -0.5,168.5C 2.98437,157.517 10.3177,150.35 21.5,147C 45.1643,146.5 68.831,146.333 92.5,146.5C 92.3334,113.832 92.5,81.165 93,48.5C 95.8426,38.6359 102.009,31.8026 111.5,28C 206.444,26.3406 301.444,26.0073 396.5,27C 407.667,30.1667 414.833,37.3333 418,48.5C 418.5,99.1656 418.667,149.832 418.5,200.5C 442.169,200.333 465.836,200.5 489.5,201C 500.682,204.35 508.016,211.517 511.5,222.5 Z M 122.5,46.5 C 212.544,46.0101 302.544,46.5101 392.5,48C 395.553,50.0514 397.386,52.8848 398,56.5C 398.985,119.211 398.652,181.878 397,244.5C 394.949,247.553 392.115,249.386 388.5,250C 355.833,250.333 323.167,250.667 290.5,251C 278.682,261.984 267.015,273.151 255.5,284.5C 243.985,273.151 232.318,261.984 220.5,251C 186.453,250.973 152.453,250.306 118.5,249C 115.447,246.949 113.614,244.115 113,240.5C 112.333,179.167 112.333,117.833 113,56.5C 114.014,50.9883 117.181,47.655 122.5,46.5 Z M 29.5,166.5 C 50.5,166.5 71.5,166.5 92.5,166.5C 92.3334,193.835 92.5,221.169 93,248.5C 95.8426,258.364 102.009,265.197 111.5,269C 144.439,270.312 177.439,270.979 210.5,271C 223.529,284.363 236.862,297.363 250.5,310C 255.184,311.102 259.517,310.436 263.5,308C 275.833,295.667 288.167,283.333 300.5,271C 302.134,270.506 303.801,270.34 305.5,270.5C 305.667,300.502 305.5,330.502 305,360.5C 304.386,364.115 302.553,366.949 299.5,369C 265.547,370.306 231.547,370.973 197.5,371C 185.682,381.984 174.015,393.151 162.5,404.5C 150.985,393.151 139.318,381.984 127.5,371C 93.4528,370.973 59.4528,370.306 25.5,369C 22.4469,366.949 20.6135,364.115 20,360.5C 19.3333,299.167 19.3333,237.833 20,176.5C 21.0143,170.988 24.1809,167.655 29.5,166.5 Z M 418.5,220.5 C 439.503,220.333 460.503,220.5 481.5,221C 485.115,221.614 487.949,223.447 490,226.5C 491.652,289.122 491.985,351.789 491,414.5C 490.386,418.115 488.553,420.949 485.5,423C 451.547,424.306 417.547,424.973 383.5,425C 371.682,435.984 360.015,447.151 348.5,458.5C 336.985,447.151 325.318,435.984 313.5,425C 280.833,424.667 248.167,424.333 215.5,424C 210,423.167 206.833,420 206,414.5C 205.333,407.167 205.333,399.833 206,392.5C 206.5,392 207,391.5 207.5,391C 239.5,390.667 271.5,390.333 303.5,390C 314.667,386.833 321.833,379.667 325,368.5C 325.5,335.835 325.667,303.168 325.5,270.5C 349.169,270.667 372.836,270.5 396.5,270C 407.667,266.833 414.833,259.667 418,248.5C 418.5,239.173 418.666,229.839 418.5,220.5 Z"/></g>
<g><path style="opacity:0.991" fill="#fff" d="M 158.5,82.5 C 223.501,82.3333 288.501,82.5 353.5,83C 358.275,86.6551 359.775,91.4884 358,97.5C 356.833,99.3333 355.333,100.833 353.5,102C 288.5,102.667 223.5,102.667 158.5,102C 152.458,98.2519 150.958,93.0852 154,86.5C 155.397,84.9297 156.897,83.5964 158.5,82.5 Z"/></g>
<g><path style="opacity:0.989" fill="#fff" d="M 158.5,138.5 C 206.834,138.333 255.168,138.5 303.5,139C 311.5,145.333 311.5,151.667 303.5,158C 255.167,158.667 206.833,158.667 158.5,158C 152.458,154.252 150.958,149.085 154,142.5C 155.397,140.93 156.897,139.596 158.5,138.5 Z"/></g>
<g><path style="opacity:0.887" fill="#fff" d="M 343.5,138.5 C 355.324,136.824 360.158,141.824 358,153.5C 354.345,158.275 349.512,159.775 343.5,158C 338.725,154.345 337.225,149.512 339,143.5C 340.366,141.638 341.866,139.972 343.5,138.5 Z"/></g>
<g><path style="opacity:0.903" fill="#fff" d="M 157.5,194.5 C 168.988,192.496 174.155,197.162 173,208.5C 172.215,210.286 171.049,211.786 169.5,213C 156.853,217.102 151.353,212.602 153,199.5C 154.366,197.638 155.866,195.972 157.5,194.5 Z"/></g>
<g><path style="opacity:0.988" fill="#fff" d="M 206.5,194.5 C 255.501,194.333 304.501,194.5 353.5,195C 358.275,198.655 359.775,203.488 358,209.5C 356.833,211.333 355.333,212.833 353.5,214C 304.5,214.667 255.5,214.667 206.5,214C 199.867,207.501 199.867,201.001 206.5,194.5 Z"/></g>
</svg>
