<svg version="1.1" id="Layer_1" xmlns="http://www.w3.org/2000/svg" xmlns:xlink="http://www.w3.org/1999/xlink" x="0px" y="0px"
	 width="100%" viewBox="0 0 130 130" enable-background="new 0 0 130 130" xml:space="preserve">
<path fill="#8CC640" opacity="1.000000" stroke="none" 
	d="
M131.000000,57.000000 
	C131.000000,63.021152 131.000000,69.042305 130.672409,75.726242 
	C126.245422,96.442734 115.971336,112.377365 97.906433,122.312782 
	C90.821442,126.209435 82.667252,128.162033 75.000000,131.000000 
	C68.978851,131.000000 62.957695,131.000000 56.274689,130.671448 
	C26.738447,123.925354 8.627264,106.579208 1.978957,77.565338 
	C1.849081,76.998550 1.334888,76.519814 1.000000,76.000000 
	C1.000000,69.645599 1.000000,63.291203 1.327633,56.273994 
	C7.883286,27.381535 24.726683,9.368647 52.947453,2.288438 
	C54.319679,1.944165 55.650108,1.433293 57.000000,1.000000 
	C62.688042,1.000000 68.376083,1.000000 74.741592,1.327464 
	C96.446571,5.317031 112.630692,16.197533 122.822418,34.953358 
	C126.526794,41.770519 128.329590,49.620987 131.000000,57.000000 
M67.669617,34.593678 
	C72.853539,36.328110 78.037468,38.062542 83.988960,39.800339 
	C91.320595,42.477032 98.943100,44.560196 105.912613,47.975792 
	C115.309883,52.581173 116.758698,60.664780 110.240662,68.973640 
	C107.172386,72.884933 103.662323,76.491829 100.067467,79.939499 
	C91.340828,88.308846 83.506844,97.323128 78.944870,108.687225 
	C76.923164,113.723396 75.289993,118.956802 76.719704,124.519165 
	C99.219704,123.777618 121.628136,100.428284 125.708771,73.910149 
	C129.903824,46.648495 112.813217,18.713875 86.159439,9.266678 
	C58.672554,-0.475806 28.585316,10.712248 13.686728,36.168118 
	C0.647401,58.447243 5.632729,87.567360 16.799000,99.079071 
	C21.500576,87.592857 23.501854,75.702583 23.929556,63.478218 
	C24.379354,50.622173 30.065470,41.486504 42.244755,36.285854 
	C50.463642,32.776325 58.658878,32.550331 67.669617,34.593678 
M46.378696,47.004932 
	C46.153244,48.472221 45.722897,49.941711 45.738663,51.406406 
	C45.799110,57.022385 52.580402,64.181587 57.331547,63.782600 
	C64.207664,63.205166 69.441216,57.424793 69.158218,50.720249 
	C68.941345,45.582127 65.791763,41.742584 60.648354,40.346165 
	C54.984890,38.808552 50.460312,40.761738 46.378696,47.004932 
M70.502975,77.108353 
	C70.182304,77.152718 69.855530,77.173737 69.544479,77.254951 
	C69.444435,77.281075 69.385818,77.465889 69.308258,77.578117 
	C70.492355,78.370712 71.577995,79.583702 72.876495,79.887817 
	C81.442947,81.894165 89.345863,79.361977 96.649796,76.835396 
	C88.453735,76.963951 79.822350,77.099335 70.502975,77.108353 
z"/>
<path fill="#FEFEFD" opacity="1.000000" stroke="none" 
	d="
M131.000000,56.531342 
	C128.329590,49.620987 126.526794,41.770519 122.822418,34.953358 
	C112.630692,16.197533 96.446571,5.317031 75.209534,1.327464 
	C93.593452,1.000000 112.186913,1.000000 131.000000,1.000000 
	C131.000000,19.353643 131.000000,37.708164 131.000000,56.531342 
z"/>
<path fill="#FEFEFD" opacity="1.000000" stroke="none" 
	d="
M56.531342,1.000000 
	C55.650108,1.433293 54.319679,1.944165 52.947453,2.288438 
	C24.726683,9.368647 7.883286,27.381535 1.327633,55.805592 
	C1.000000,37.739223 1.000000,19.478447 1.000000,1.000000 
	C19.353655,1.000000 37.708168,1.000000 56.531342,1.000000 
z"/>
<path fill="#FEFEFD" opacity="1.000000" stroke="none" 
	d="
M75.468658,131.000000 
	C82.667252,128.162033 90.821442,126.209435 97.906433,122.312782 
	C115.971336,112.377365 126.245422,96.442734 130.672409,76.194504 
	C131.000000,94.260780 131.000000,112.521553 131.000000,131.000000 
	C112.646347,131.000000 94.291832,131.000000 75.468658,131.000000 
z"/>
<path fill="#FEFEFD" opacity="1.000000" stroke="none" 
	d="
M1.000000,76.468658 
	C1.334888,76.519814 1.849081,76.998550 1.978957,77.565338 
	C8.627264,106.579208 26.738447,123.925354 55.806419,130.671448 
	C37.739883,131.000000 19.479769,131.000000 1.000000,131.000000 
	C1.000000,112.979698 1.000000,94.958511 1.000000,76.468658 
z"/>
<path fill="#F8E987" opacity="1.000000" stroke="none" 
	d="
M67.161728,34.130535 
	C58.658878,32.550331 50.463642,32.776325 42.244755,36.285854 
	C30.065470,41.486504 24.379354,50.622173 23.929556,63.478218 
	C23.501854,75.702583 21.500576,87.592857 16.799000,99.079071 
	C5.632729,87.567360 0.647401,58.447243 13.686728,36.168118 
	C28.585316,10.712248 58.672554,-0.475806 86.159439,9.266678 
	C112.813217,18.713875 129.903824,46.648495 125.708771,73.910149 
	C121.628136,100.428284 99.219704,123.777618 76.719704,124.519165 
	C75.289993,118.956802 76.923164,113.723396 78.944870,108.687225 
	C83.506844,97.323128 91.340828,88.308846 100.067467,79.939499 
	C103.662323,76.491829 107.172386,72.884933 110.240662,68.973640 
	C116.758698,60.664780 115.309883,52.581173 105.912613,47.975792 
	C98.943100,44.560196 91.320595,42.477032 83.481522,39.486412 
	C79.000679,33.218479 75.050224,31.958828 67.161728,34.130535 
M122.741554,62.952946 
	C121.931564,49.456993 117.821663,37.472195 107.482773,27.581638 
	C112.618309,40.665421 117.481361,53.054993 122.356270,65.474770 
	C122.471214,64.915009 122.599434,64.290619 122.741554,62.952946 
M74.766914,11.836439 
	C80.884399,13.444856 87.001877,15.053272 93.647499,16.800549 
	C88.945778,11.339518 75.633400,7.880075 68.937065,10.319439 
	C70.920326,10.843212 72.457603,11.249201 74.766914,11.836439 
z"/>
<path fill="#F5F7F2" opacity="1.000000" stroke="none" 
	d="
M46.557922,46.678169 
	C50.460312,40.761738 54.984890,38.808552 60.648354,40.346165 
	C65.791763,41.742584 68.941345,45.582127 69.158218,50.720249 
	C69.441216,57.424793 64.207664,63.205166 57.331547,63.782600 
	C52.580402,64.181587 45.799110,57.022385 45.738663,51.406406 
	C45.722897,49.941711 46.153244,48.472221 46.557922,46.678169 
M59.129066,43.321339 
	C52.905285,43.682343 50.128323,45.922436 49.880501,50.781902 
	C49.652809,55.246601 51.976357,58.415615 56.005619,59.135765 
	C60.652447,59.966290 64.273163,58.019295 65.559769,53.998142 
	C67.025444,49.417343 65.020790,45.732014 59.129066,43.321339 
z"/>
<path fill="#5E6658" opacity="1.000000" stroke="none" 
	d="
M70.846970,77.171539 
	C79.822350,77.099335 88.453735,76.963951 96.649796,76.835396 
	C89.345863,79.361977 81.442947,81.894165 72.876495,79.887817 
	C71.577995,79.583702 70.492355,78.370712 69.308258,77.578117 
	C69.385818,77.465889 69.444435,77.281075 69.544479,77.254951 
	C69.855530,77.173737 70.182304,77.152718 70.846970,77.171539 
z"/>
<path fill="#249B48" opacity="1.000000" stroke="none" 
	d="
M67.415672,34.362106 
	C75.050224,31.958828 79.000679,33.218479 83.097733,39.484730 
	C78.037468,38.062542 72.853539,36.328110 67.415672,34.362106 
z"/>
<path fill="#FDFDF4" opacity="1.000000" stroke="none" 
	d="
M122.734604,63.309586 
	C122.599434,64.290619 122.471214,64.915009 122.356270,65.474770 
	C117.481361,53.054993 112.618309,40.665421 107.482773,27.581638 
	C117.821663,37.472195 121.931564,49.456993 122.734604,63.309586 
z"/>
<path fill="#FCFBEE" opacity="1.000000" stroke="none" 
	d="
M74.380898,11.745815 
	C72.457603,11.249201 70.920326,10.843212 68.937065,10.319439 
	C75.633400,7.880075 88.945778,11.339518 93.647499,16.800549 
	C87.001877,15.053272 80.884399,13.444856 74.380898,11.745815 
z"/>
<path fill="#5B5C5E" opacity="1.000000" stroke="none" 
	d="
M59.497826,43.426590 
	C65.020790,45.732014 67.025444,49.417343 65.559769,53.998142 
	C64.273163,58.019295 60.652447,59.966290 56.005619,59.135765 
	C51.976357,58.415615 49.652809,55.246601 49.880501,50.781902 
	C50.128323,45.922436 52.905285,43.682343 59.497826,43.426590 
z"/>
</svg>