<svg width="13" height="12" viewBox="0 0 13 12" fill="none" xmlns="http://www.w3.org/2000/svg">
<g clip-path="url(#clip0_639_121)">
<path fill-rule="evenodd" clip-rule="evenodd" d="M11.7351 1.24772C11.7814 1.24253 11.828 1.25143 11.8695 1.27336C11.911 1.29548 11.9454 1.3298 11.9685 1.3721C11.9916 1.4144 12.0024 1.46284 11.9996 1.51147L11.6087 8.25H1.39129L1.00047 1.51147C0.997558 1.46284 1.00829 1.41438 1.03135 1.37204C1.0544 1.32971 1.08878 1.29534 1.13025 1.27316C1.17172 1.25098 1.21849 1.24195 1.2648 1.24718C1.31111 1.25242 1.35495 1.27169 1.39093 1.30262L3.83249 3.39205L6.31207 0.0905821C6.33528 0.0621778 6.3641 0.039372 6.39654 0.0237347C6.42899 0.00809737 6.46429 0 6.50001 0C6.53573 0 6.57103 0.00809737 6.60348 0.0237347C6.63592 0.039372 6.66474 0.0621778 6.68795 0.0905821L9.16753 3.39205L11.6091 1.30262C11.6452 1.27198 11.6889 1.25292 11.7351 1.24772ZM1.42029 8.75L1.43828 9.06008C1.45336 9.31436 1.56047 9.55308 1.73783 9.72768C1.9152 9.90229 2.14949 9.99966 2.39305 10H10.607C10.8505 9.99966 11.0848 9.90229 11.2622 9.72768C11.4396 9.55308 11.5467 9.31436 11.5617 9.06008L11.5797 8.75H1.42029Z" fill="#FFB800"/>
</g>
<defs>
<clipPath id="clip0_639_121">
<rect width="12" height="12" fill="white" transform="translate(0.5)"/>
</clipPath>
</defs>
</svg>
