<?xml version="1.0" standalone="no"?>
<!DOCTYPE svg PUBLIC "-//W3C//DTD SVG 20010904//EN"
 "http://www.w3.org/TR/2001/REC-SVG-20010904/DTD/svg10.dtd">
<svg version="1.0" xmlns="http://www.w3.org/2000/svg"
 width="512.000000pt" height="512.000000pt" viewBox="0 0 512.000000 512.000000"
 preserveAspectRatio="xMidYMid meet">

<g transform="translate(0.000000,512.000000) scale(0.100000,-0.100000)"
fill="#fff" stroke="none">
<path d="M2315 5109 c-597 -61 -1141 -318 -1563 -739 -1002 -1000 -1002 -2620
0 -3620 407 -405 900 -647 1493 -732 119 -17 512 -16 635 1 997 138 1799 800
2111 1743 90 273 124 488 124 798 0 310 -34 525 -124 798 -308 932 -1098 1593
-2076 1738 -122 18 -477 26 -600 13z m570 -414 c606 -94 1138 -434 1475 -943
400 -602 470 -1375 187 -2036 -299 -697 -917 -1175 -1672 -1293 -149 -24 -487
-23 -634 0 -952 154 -1670 872 -1818 1822 -24 151 -24 479 0 630 96 613 429
1140 936 1479 302 202 634 319 1026 360 81 8 403 -4 500 -19z"/>
<path d="M2465 3744 c-58 -20 -106 -64 -140 -125 -26 -47 -30 -64 -30 -129 1
-90 21 -135 88 -197 131 -120 333 -81 420 82 16 30 22 58 22 115 0 65 -4 82
-30 129 -16 29 -45 66 -64 82 -68 56 -179 74 -266 43z"/>
<path d="M2496 2965 c-49 -17 -93 -59 -117 -110 -17 -38 -19 -80 -19 -726 l0
-686 23 -44 c71 -135 254 -145 342 -20 l30 43 3 691 c3 775 6 744 -68 811 -59
53 -123 67 -194 41z"/>
</g>
</svg>
