<svg xmlns:dc="http://purl.org/dc/elements/1.1/" xmlns:cc="http://creativecommons.org/ns#" xmlns:rdf="http://www.w3.org/1999/02/22-rdf-syntax-ns#" xmlns:svg="http://www.w3.org/2000/svg" xmlns="http://www.w3.org/2000/svg" version="1.1" viewBox="0 0 100 125" x="0px" y="0px"><g transform="translate(0,-952.36216)"><path d="m 21.689918,957.36216 c -3.247298,0 -5.861545,2.61425 -5.861545,5.86154 l 0,78.2769 c 0,3.2473 2.614247,5.8616 5.861545,5.8616 l 43.661673,0 c 3.247298,0 5.861554,-2.6143 5.861554,-5.8616 l 0,-11.0309 a 1.1076944,1.1076944 0 0 0 -1.108197,-1.1074 l -4.707565,0 a 1.1076944,1.1076944 0 0 0 -1.107431,1.1074 l 0,4.6603 c 0,0.64 -0.515466,1.1555 -1.155519,1.1555 l -39.228113,0 c -0.640053,0 -1.154754,-0.5155 -1.154754,-1.1555 l 0,-69.68989 c 0,-0.64006 0.514701,-1.15476 1.154754,-1.15476 l 39.228113,0 c 0.640053,0 1.155519,0.5147 1.155519,1.15476 l 0,32.26295 -9.860837,0 c -2.380814,2e-4 -3.868946,2.31424 -2.678912,4.16564 l 13.322811,20.7193 c 1.190727,1.8509 4.166342,1.8509 5.357068,0 l 13.322812,-20.7193 c 1.190024,-1.8514 -0.298098,-4.16544 -2.678912,-4.16564 l -9.860837,0 0,-34.47936 c 0,-3.24729 -2.614256,-5.86154 -5.861554,-5.86154 l -43.661673,0 z m 16.292513,83.07684 11.076647,0 c 0.767078,0 1.384487,0.6174 1.384487,1.3844 0,0.7672 -0.617409,1.3846 -1.384487,1.3846 l -11.076647,0 c -0.767079,0 -1.385243,-0.6174 -1.385243,-1.3846 0,-0.767 0.618164,-1.3844 1.385243,-1.3844 z" style="opacity:1;fill:#000000;fill-opacity:1;stroke:none;stroke-width:0.30000001;stroke-linecap:butt;stroke-miterlimit:4;stroke-dasharray:none;stroke-dashoffset:0;stroke-opacity:1"/></g><text x="0" y="115" fill="#000000" font-size="5px" font-weight="bold" font-family="'Helvetica Neue', Helvetica, Arial-Unicode, Arial, Sans-serif">Created by Florent Brunet</text><text x="0" y="120" fill="#000000" font-size="5px" font-weight="bold" font-family="'Helvetica Neue', Helvetica, Arial-Unicode, Arial, Sans-serif">from the Noun Project</text></svg>