<svg xmlns="http://www.w3.org/2000/svg" viewBox="0 0 40 50" x="0px" y="0px">
    <path fill="#000000" fill-rule="evenodd"
        d="M109,36 C108.447715,36 108,35.5522847 108,35 L108,15 C108,14.4477153 108.447715,14 109,14 L116,14 C116.552285,14 117,14.4477153 117,15 C117,15.5522847 116.552285,16 116,16 L110,16 L110,34 L130,34 L130,16 L124,16 C123.447715,16 123,15.5522847 123,15 C123,14.4477153 123.447715,14 124,14 L131,14 C131.552285,14 132,14.4477153 132,15 L132,35 C132,35.5522847 131.552285,36 131,36 L109,36 Z M121,7.66814811 L121,26.9975383 C121,27.5511826 120.556135,28 120,28 C119.447715,28 119,27.5605417 119,26.9975383 L119,7.66814811 L116.243294,10.7291701 C115.873835,11.1394141 115.241545,11.172671 114.831035,10.8034513 C114.420525,10.4342317 114.387247,9.80235152 114.756706,9.39210747 L119.335933,4.30737367 C119.703075,3.89970297 120.297313,3.90013327 120.664067,4.30737367 L125.243294,9.39210747 C125.612753,9.80235152 125.579475,10.4342317 125.168965,10.8034513 C124.758455,11.172671 124.126165,11.1394141 123.756706,10.7291701 L121,7.66814811 Z"
        transform="translate(-100)" /><text x="0" y="55" fill="#000000" font-size="5px" font-weight="bold"
        font-family="'Helvetica Neue', Helvetica, Arial-Unicode, Arial, Sans-serif">Created by Keller</text><text x="0"
        y="60" fill="#000000" font-size="5px" font-weight="bold"
        font-family="'Helvetica Neue', Helvetica, Arial-Unicode, Arial, Sans-serif">from the Noun Project</text>
</svg>