<svg xmlns="http://www.w3.org/2000/svg" viewBox="0 0 100 125" x="0px" y="0px">
    <g data-name="Layer 2">
        <path
            d="M73.48,5H28a5,5,0,0,0-4.95,5V90.05A5,5,0,0,0,28,95H73.48a5,5,0,0,0,5-5V10A5,5,0,0,0,73.48,5Zm-.2,78.32A2.27,2.27,0,0,1,71,85.62H30.47a2.28,2.28,0,0,1-2.28-2.27V16.68a2.28,2.28,0,0,1,2.28-2.27H71a2.27,2.27,0,0,1,2.27,2.27Z" />
        <path
            d="M58.83,52.8l-5.09,5.09v-23a3,3,0,0,0-6,0v23L42.65,52.8A3,3,0,0,0,38.4,57L48.62,67.26a3,3,0,0,0,4.24,0L63.08,57a3,3,0,0,0-4.25-4.24Z" />
    </g><text x="0" y="115" fill="#000000" font-size="5px" font-weight="bold"
        font-family="'Helvetica Neue', Helvetica, Arial-Unicode, Arial, Sans-serif">Created by Justin Blake</text><text
        x="0" y="120" fill="#000000" font-size="5px" font-weight="bold"
        font-family="'Helvetica Neue', Helvetica, Arial-Unicode, Arial, Sans-serif">from the Noun Project</text>
</svg>