<svg width="349" height="126" viewBox="0 0 349 126" fill="none" xmlns="http://www.w3.org/2000/svg">
<path d="M689.928 -43.9368C612.703 -12.6896 552.195 -3.02877 510.917 -0.0484491C469.176 2.96476 436.567 -0.11852 386.542 13.9731C331.335 29.4485 300.14 49.6235 288.133 58.2867C271.489 70.3032 273.674 71.9298 247.506 93.7754C197.24 135.742 183.305 134.665 162.266 156.53C127.382 192.778 151.567 210.404 119.915 258.299C96.9972 292.99 51.0934 334.004 -2.19907 346.824C-52.3852 358.896 -69.5675 336.454 -119.022 356.057C-139.337 364.11 -154.083 375.24 -183.564 397.496C-221.368 425.975 -244.514 449.718 -254.026 458.729C-282.195 485.437 -332.707 518.135 -430.542 539.772" stroke="white" stroke-width="0.190763" stroke-miterlimit="10"/>
<path d="M694.336 -36.1215C619.888 -5.37379 558.808 6.42576 514.146 10.4259C477.787 13.5156 448.155 11.9461 411.467 18.3434C403.446 19.7489 395.078 21.401 386.269 23.5949C330.761 37.4328 298.554 55.1987 285.275 62.955C267.464 73.3485 268.252 74.9749 242.576 96.3225C224.476 111.358 211.238 121.351 200.818 128.749C183.102 141.319 173.558 146.216 161.352 159.794C156.788 164.841 152.824 170.234 149.537 175.867C134.332 201.911 144.583 220.616 117.051 259.055C93.0857 292.516 46.6547 331.54 -5.78004 344.035C-9.93517 345.023 -14.1087 345.834 -18.2847 346.463C-60.4326 352.799 -78.3857 336.71 -121.875 353.897C-126.461 355.703 -130.954 357.757 -135.327 360.045C-150.039 367.695 -164.014 378.147 -186.095 394.807C-222.651 422.455 -245.457 445.797 -255.94 455.741C-263.631 462.998 -271.904 469.778 -280.671 476.01C-310.973 497.648 -357.38 520.864 -430.025 538.337" stroke="white" stroke-width="0.190763" stroke-miterlimit="10"/>
<path d="M699.09 -27.5936C627.42 2.63097 565.77 16.7157 517.685 21.5399C479.503 25.378 448.462 23.6674 412.142 29.3109C403.848 30.5892 395.277 31.9675 386.314 33.9313C330.502 46.1227 296.916 60.6076 282.725 68.3436C264.448 78.3305 263.119 78.7604 237.977 99.5787C220.379 114.167 207.402 124.553 197.407 132.275C180.556 145.261 171.925 150.415 160.817 163.754C156.596 168.863 152.911 174.244 149.815 179.817C135.327 205.389 142.987 223.928 114.523 260.562C89.5058 292.784 42.5476 329.818 -9.0293 341.988C-13.4125 342.984 -17.4987 343.836 -21.4451 344.395C-64.8484 351.08 -82.4869 335.99 -124.381 352.539C-128.936 354.32 -133.401 356.344 -137.748 358.6C-152.743 366.308 -166.735 376.667 -188.243 392.993C-223.582 419.78 -246.01 442.736 -257.52 453.528C-265.152 460.724 -273.335 467.468 -281.992 473.694C-311.935 495.316 -357.819 519.057 -429.122 537.64" stroke="white" stroke-width="0.190763" stroke-miterlimit="10"/>
<path d="M704.12 -18.4661C635.247 11.2718 573.002 27.5062 521.522 33.299C481.527 37.7904 449.066 36.0009 413.132 40.8703C404.553 42.0271 395.773 43.1462 386.674 44.8597C330.566 55.4228 296.544 68.4265 280.484 74.315C260.62 81.6076 258.297 83.1287 233.676 103.423C216.55 117.558 203.838 128.346 194.211 136.42C178.231 149.807 170.501 155.246 160.485 168.338C156.652 173.492 153.274 178.848 150.388 184.346C136.612 209.438 141.608 227.835 112.299 262.61C86.1847 293.615 38.7494 328.646 -11.9743 340.482C-16.3232 341.461 -20.3866 342.302 -24.2968 342.877C-68.9548 349.854 -86.2952 335.816 -126.616 351.625C-131.143 353.382 -135.584 355.38 -139.909 357.605C-155.191 365.362 -169.236 375.668 -190.161 391.598C-224.262 417.504 -246.34 440.075 -258.832 451.783C-266.43 458.909 -274.535 465.618 -283.082 471.853C-312.666 493.459 -358.023 517.734 -427.978 537.412" stroke="white" stroke-width="0.190763" stroke-miterlimit="10"/>
<path d="M709.171 -9.32611C643.075 19.9124 580.268 38.3038 525.377 45.0616C483.552 50.2025 449.678 48.3195 414.117 52.4443C405.265 53.474 396.281 54.3192 387.028 55.8026C330.638 64.7649 295.828 75.386 278.247 80.3192C257.475 86.1452 253.523 87.5077 229.379 107.301C212.691 121.031 200.299 132.16 191.05 140.547C175.937 154.326 169.127 160.064 160.189 172.905C156.749 178.095 153.676 183.421 150.992 188.849C137.908 213.448 140.244 231.712 110.106 264.689C82.8894 294.468 34.9928 327.5 -14.8845 339.015C-19.1877 339.973 -23.2283 340.803 -27.1183 341.39C-73.038 348.674 -90.013 335.768 -128.798 350.787C-133.293 352.534 -137.708 354.505 -142.018 356.687C-157.559 364.49 -171.594 374.701 -192.026 390.28C-224.905 415.333 -246.617 437.524 -260.103 450.12C-267.65 457.188 -275.674 463.864 -284.115 470.097C-313.348 491.702 -358.187 516.493 -426.795 537.29" stroke="white" stroke-width="0.190763" stroke-miterlimit="10"/>
<path d="M712.583 -3.50987C649.262 25.2292 585.886 45.7923 527.595 53.5096C483.949 59.2854 448.636 57.287 413.465 60.7036C404.347 61.5915 395.155 62.2106 385.746 63.4309C329.097 70.7813 293.487 79.0822 274.4 82.9739C252.738 87.4027 247.054 88.5668 223.471 107.829C210.453 118.478 198.041 129.686 186.298 141.395C172.014 155.573 166.156 161.617 158.307 174.144C154.886 179.627 152.579 184.819 149.907 190.074C137.497 214.143 137.193 232.344 106.239 263.461C77.881 292.021 29.5503 323.052 -19.4692 334.241C-23.7382 335.182 -27.7559 336.001 -31.6141 336.596C-78.7937 344.22 -95.4787 332.29 -132.667 346.648C-137.128 348.377 -141.512 350.322 -145.797 352.47C-161.611 360.35 -175.672 370.449 -195.545 385.61C-227.202 409.778 -248.551 431.613 -263.02 445.091C-270.525 452.103 -278.476 458.746 -286.823 464.978C-315.691 486.576 -359.992 511.896 -427.263 533.793" stroke="white" stroke-width="0.190763" stroke-miterlimit="10"/>
<path d="M715.199 0.548008C654.658 28.7639 590.708 51.4895 529.015 60.19C483.546 66.6007 446.809 64.4577 412.037 67.2411C402.637 67.9836 393.254 68.3562 383.688 69.3374C326.735 75.1309 290.318 81.1263 269.727 83.9527C247.233 87.0134 239.806 87.9278 216.733 106.671C203.805 117.174 191.749 128.476 180.696 140.455C167.277 154.993 162.334 161.383 155.587 173.68C152.581 179.12 150.649 184.299 148.029 189.574C136.317 213.192 133.278 231.162 101.578 260.507C72.0479 287.841 23.3035 316.884 -24.8627 327.739C-29.086 328.657 -33.0695 329.46 -36.9189 330.073C-85.345 338.064 -101.761 327.155 -137.297 340.847C-141.731 342.552 -146.091 344.47 -150.353 346.589C-166.427 354.515 -180.528 364.532 -199.822 379.345C-230.245 402.655 -251.233 424.1 -266.698 438.49C-274.158 445.437 -282.03 452.045 -290.268 458.276C-318.785 479.872 -362.558 505.726 -428.496 528.716" stroke="white" stroke-width="0.190763" stroke-miterlimit="10"/>
<path d="M717.811 4.68662C660.066 32.4158 595.547 57.2563 530.43 66.9512C483.146 73.9821 444.987 71.6706 410.587 73.7661C400.896 74.3449 391.301 74.4822 381.596 75.2368C324.372 79.4807 287.142 83.2182 265.051 84.8988C241.617 86.6889 232.548 87.2708 209.996 105.491C197.157 115.906 185.462 127.358 175.133 139.63C162.593 154.498 158.573 161.276 152.884 173.286C150.334 178.674 148.74 183.825 146.197 189.142C135.141 212.25 129.367 230.078 96.9353 257.623C66.2127 283.719 17.0933 310.765 -30.1765 321.287C-34.3655 322.189 -38.3262 322.981 -42.1483 323.592C-91.8519 331.886 -107.906 321.986 -141.925 334.966C-146.325 336.655 -150.656 338.543 -154.896 340.621C-171.274 348.56 -185.37 358.529 -204.095 372.975C-233.308 395.406 -253.91 416.483 -270.385 431.758C-277.795 438.653 -285.588 445.233 -293.724 451.465C-321.896 473.018 -365.142 499.407 -429.718 523.519" stroke="white" stroke-width="0.190763" stroke-miterlimit="10"/>
<path d="M720.444 8.83794C665.475 36.0678 600.385 63.0469 531.865 73.7251C482.755 81.3818 443.17 78.8926 409.157 80.3605C399.211 80.792 389.405 80.7268 379.538 81.1763C322.031 83.8761 283.966 85.3668 260.386 85.896C236.039 86.4135 225.308 86.6503 203.267 104.352C190.518 114.675 179.171 126.249 169.545 138.751C157.797 154.002 154.801 161.118 150.172 172.84C148.069 178.192 146.782 183.307 144.328 188.66C133.931 211.268 125.433 228.916 92.2826 254.688C60.3311 279.529 10.8657 304.61 -35.5849 314.814C-39.7397 315.7 -43.6774 316.48 -47.4635 317.108C-98.4251 325.775 -114.162 316.849 -146.612 329.136C-150.983 330.809 -155.288 332.67 -159.51 334.711C-176.168 342.683 -190.325 352.614 -208.465 366.665C-236.437 388.223 -256.68 408.935 -274.149 425.097C-281.505 431.943 -289.212 438.5 -297.238 444.74C-325.044 466.319 -367.781 493.206 -431.015 518.427" stroke="white" stroke-width="0.190763" stroke-miterlimit="10"/>
<path d="M723.067 12.9709C670.862 39.6739 605.173 68.7937 533.256 80.4643C482.269 88.7597 441.322 86.0505 407.682 86.9202C397.456 87.1825 387.451 86.9094 377.437 87.1141C319.672 88.2917 280.765 87.5502 255.685 86.8768C230.401 86.1896 218.024 86.028 196.505 103.206C183.851 113.469 172.86 125.191 163.962 137.913C153.039 153.498 151.039 161.012 147.465 172.437C145.811 177.752 144.861 182.805 142.43 188.237C132.666 210.346 121.394 227.77 87.5745 251.813C54.3854 275.381 4.59437 298.51 -41.01 308.394C-45.119 309.257 -49.034 310.027 -52.7776 310.713C-104.99 319.738 -120.421 311.792 -151.272 323.394C-155.627 325.036 -159.916 326.874 -164.118 328.899C-181.02 336.979 -195.187 346.745 -212.837 360.411C-239.578 381.102 -259.451 401.442 -277.926 418.499C-284.598 424.666 -292.129 431.216 -300.807 438.018C-328.254 459.581 -370.464 487.002 -432.349 513.319" stroke="white" stroke-width="0.190763" stroke-miterlimit="10"/>
<path d="M725.63 16.976C676.262 43.1611 609.991 74.4251 534.657 87.1083C481.897 95.9927 439.488 93.0896 406.213 93.3756C395.72 93.4632 385.508 92.9968 375.338 92.9385C317.269 92.616 277.502 89.6625 251.007 87.757C224.76 85.8102 210.775 85.2996 189.766 101.959C177.191 112.173 166.536 124.042 158.35 136.955C148.234 152.894 147.326 160.77 144.73 171.913C143.523 177.192 142.891 182.203 140.583 187.655C131.443 209.247 117.434 226.497 82.9397 248.768C48.4451 271.039 -1.61961 292.236 -46.3662 301.794C-50.441 302.641 -54.3331 303.399 -58.0539 304.074C-111.529 313.463 -126.654 306.498 -155.954 317.428C-160.27 319.043 -164.521 320.851 -168.689 322.844C-185.905 330.974 -200.056 340.654 -217.082 353.95C-242.609 373.77 -262.096 393.743 -281.581 411.684C-288.228 417.817 -295.694 424.324 -304.236 431.116C-331.324 452.663 -373.012 480.609 -433.55 508.045" stroke="white" stroke-width="0.190763" stroke-miterlimit="10"/>
<path d="M728.154 20.932C681.537 46.6525 614.734 79.991 535.988 93.6959C481.376 103.241 437.597 100.043 404.706 99.7818C393.928 99.6911 383.514 99.0405 373.166 98.7303C314.812 96.8875 274.186 91.755 246.26 88.5569C219.053 85.4732 203.396 84.5094 182.993 100.616C169.447 111.311 159.025 124.904 152.716 135.895C143.385 152.175 143.476 160.481 141.96 171.292C141.224 176.523 140.899 181.498 138.683 186.996C130.148 208.058 113.415 225.071 78.2441 245.628C42.5036 266.55 -7.88997 285.876 -51.7788 295.109C-55.8079 295.934 -59.6772 296.681 -63.3865 297.35C-118.117 307.088 -132.925 301.097 -160.614 311.336C-164.902 312.931 -169.128 314.712 -173.274 316.672C-190.752 324.816 -204.93 334.441 -221.458 347.394C-245.756 366.348 -264.838 385.933 -285.329 404.767C-291.955 410.856 -299.348 417.339 -307.751 424.097C-334.487 445.643 -375.652 474.115 -434.85 502.628" stroke="white" stroke-width="0.190763" stroke-miterlimit="10"/>
<path d="M730.662 24.8275C686.826 50.0578 619.442 85.3703 537.299 100.214C480.894 110.222 435.686 106.927 403.142 106.102C392.1 105.813 381.454 105.004 370.996 104.409C312.336 101.122 270.805 93.7434 241.484 89.3257C213.288 85.0741 196.11 83.6511 176.122 99.2742C163.033 109.545 152.857 123.471 146.995 134.831C138.451 151.452 139.661 160.118 139.115 170.662C138.815 175.862 138.812 180.772 136.677 186.32C128.767 206.899 109.245 223.628 73.4495 242.546C36.3927 262.121 -14.2593 279.575 -57.2948 288.473C-61.2905 289.289 -65.1331 290.023 -68.8225 290.676C-124.818 300.801 -139.317 295.767 -165.418 305.326C-169.676 306.893 -173.873 308.645 -177.993 310.575C-195.746 318.762 -209.955 328.323 -225.934 340.898C-248.994 358.969 -267.708 378.24 -289.233 397.937C-295.828 404 -303.151 410.426 -311.433 417.171C-337.806 438.71 -378.448 467.707 -436.296 497.348" stroke="white" stroke-width="0.190763" stroke-miterlimit="10"/>
<path d="M733.141 28.659C692.088 53.3752 624.122 90.8319 538.581 106.668C480.35 117.302 433.721 113.724 401.563 112.386C390.264 111.916 379.411 110.914 368.786 110.061C309.825 105.308 267.348 95.7465 236.686 90.0159C207.473 84.5982 188.712 82.7016 169.296 97.788C156.648 107.631 146.711 121.903 141.328 133.64C133.547 150.614 135.885 159.658 136.34 169.909C136.549 175.054 136.791 179.947 134.756 185.526C127.363 205.628 105.51 222.991 68.6496 239.333C29.8967 256.515 -20.634 273.142 -62.8231 281.721C-66.7808 282.518 -70.5967 283.239 -74.2709 283.884C-131.516 294.457 -145.715 290.304 -170.227 299.183C-174.456 300.733 -178.627 302.461 -182.724 304.361C-200.748 312.6 -215.031 322.096 -230.412 334.245C-252.175 351.473 -270.537 370.45 -293.083 390.98C-299.653 397.008 -306.907 403.401 -315.046 410.122C-341.067 431.659 -381.186 461.181 -437.681 491.927" stroke="white" stroke-width="0.190763" stroke-miterlimit="10"/>
<path d="M735.642 32.4227C697.357 56.6213 628.828 96.2349 539.885 113.054C479.827 124.314 431.852 120.43 400 118.56C388.401 117.908 377.355 116.74 366.579 115.577C307.28 109.34 263.965 97.6122 231.877 90.5981C201.61 84.0549 181.269 81.7505 162.348 96.315C150.153 105.724 140.45 120.334 135.534 132.454C128.507 149.762 132.008 159.168 133.391 169.149C134.086 174.251 134.592 179.106 132.654 184.739C125.915 204.299 100.948 220.417 63.8331 236.06C24.2366 252.781 -27.0138 266.643 -68.3452 274.896C-72.2144 275.643 -76.0837 276.39 -79.7131 277.021C-138.214 287.943 -152.123 284.767 -175.041 292.975C-179.241 294.496 -183.384 296.196 -187.454 298.066C-205.753 306.349 -220.01 315.753 -234.878 327.563C-255.49 343.906 -273.458 362.444 -296.976 383.908C-303.532 389.906 -310.751 396.226 -318.759 402.985C-344.443 424.461 -384.029 454.559 -439.125 486.387" stroke="white" stroke-width="0.190763" stroke-miterlimit="10"/>
<path d="M738.018 36.1905C702.53 59.9025 633.432 101.631 541.069 119.454C479.139 131.361 429.828 127.109 398.359 124.749C386.536 123.867 375.221 122.581 364.322 121.162C304.677 113.603 260.458 99.5149 227.083 91.1839C195.794 83.4326 173.964 80.6762 155.482 94.7795C143.74 103.755 134.248 118.714 129.807 131.202C123.55 148.904 128.21 158.605 130.528 168.336C131.749 173.386 132.491 178.206 130.657 183.879C124.492 202.935 96.7506 218.683 59.0419 232.752C18.1755 248.046 -33.3912 260.121 -73.8579 268.034C-77.7271 268.781 -81.5164 269.489 -85.1103 270.193C-144.878 281.469 -158.476 279.225 -179.817 286.76C-184.01 288.285 -188.147 289.989 -192.209 291.864C-209.209 299.48 -225.131 309.294 -239.342 320.914C-258.724 336.391 -276.322 354.557 -300.845 376.914C-307.381 382.869 -314.507 389.177 -322.361 395.873C-359.169 426.999 -398.727 455.471 -440.499 480.903" stroke="white" stroke-width="0.190763" stroke-miterlimit="10"/>
<path d="M740.438 39.9031C707.726 63.1156 638.057 106.983 542.292 125.789C478.581 138.3 427.882 133.773 396.682 130.921C258.175 118.201 189.25 62.4236 148.515 93.2369C137.224 101.778 127.944 117.086 123.994 129.946C115.55 157.396 133.604 166.36 128.563 183.021C116.207 223.876 -16.2126 249.12 -90.6318 263.312C-163.194 277.145 -168.266 272.732 -196.943 285.503C-247.009 307.773 -264.952 336.024 -326.049 388.701C-362.402 419.968 -401.189 448.959 -442.009 475.373" stroke="white" stroke-width="0.190763" stroke-miterlimit="10"/>
<path d="M741.705 42.5165C708.315 66.7458 640.585 108.793 549.019 126.749C485.796 139.102 436.654 133.539 403.321 130.795C270.202 119.909 205.859 69.4254 162.796 97.5875C145.969 108.587 129.988 122.031 121.39 134.932C104.5 160.292 119.31 168.471 110.994 186.233C92.7974 225.135 -29.7131 250.744 -100.271 264.87C-169.031 278.575 -173.677 275.276 -203.078 290.654C-251.933 316.208 -269.593 342.076 -326.987 392.033C-362.798 423.196 -401.351 451.822 -442.134 477.532" stroke="white" stroke-width="0.190763" stroke-miterlimit="10"/>
<path d="M743.024 45.2392C687.513 86.0066 622.78 114.555 555.794 127.808C493.063 140.013 445.537 133.362 410.007 130.769C282.338 121.496 221.529 75.5958 177.112 102.044C154.579 115.471 132.716 126.7 118.837 140.028C95.0097 162.86 105.431 170.334 93.4775 189.555C70.6304 226.254 -43.1662 252.469 -109.875 266.534C-174.729 280.062 -179.004 277.789 -209.177 295.912C-256.789 324.496 -274.142 348.32 -327.873 395.475C-363.135 426.519 -401.441 454.775 -442.16 479.778" stroke="white" stroke-width="0.190763" stroke-miterlimit="10"/>
<path d="M745.373 50.0818C691.702 90.1236 628.767 118.136 563.588 130.993C501.356 143.035 455.436 135.301 417.723 132.864C295.653 124.984 240.967 90.3785 192.471 108.615C162.134 120.024 136.979 133.571 117.299 147.239C87.5588 167.883 92.9172 174.166 76.9753 194.993C50.5839 229.472 -55.5674 256.415 -118.437 270.312C-179.433 283.798 -183.295 282.319 -214.238 303.274C-260.664 334.714 -277.658 356.66 -327.744 401.033C-362.456 431.975 -400.527 459.872 -441.191 484.161" stroke="white" stroke-width="0.190763" stroke-miterlimit="10"/>
<path d="M748.946 57.4555C697.117 96.7633 635.976 124.231 572.604 136.677C510.856 148.552 466.552 139.73 426.651 137.462C310.198 130.842 258.121 100.805 209.029 117.695C172.561 130.248 139.061 138.654 116.984 156.949C86.6038 182.123 85.5967 183.333 61.6955 202.929C38.7268 238.446 -66.7596 262.833 -125.799 276.6C-182.933 289.963 -186.399 289.273 -218.096 313.155C-263.376 347.278 -279.933 367.534 -326.393 409.089C-360.557 439.926 -398.401 467.464 -439.003 491.033" stroke="white" stroke-width="0.190763" stroke-miterlimit="10"/>
<path d="M752.603 65.0027C702.622 103.583 643.285 130.533 581.717 142.618C520.461 154.345 477.771 144.401 435.675 142.317C324.887 136.822 275.243 110.932 225.764 126.993C183.115 140.85 145.613 148.217 116.769 166.926C79.5743 191.047 75.1291 190.81 46.5166 211.132C20.8948 245.249 -77.8565 269.418 -132.985 283.107C-186.258 296.346 -189.382 296.36 -221.777 323.255C-266.043 359.966 -282.024 378.646 -324.878 417.369C-358.495 448.102 -396.116 475.285 -436.651 498.129" stroke="white" stroke-width="0.190763" stroke-miterlimit="10"/>
<path d="M756.333 72.696C708.201 110.519 650.677 136.929 590.926 148.637C530.158 160.206 489.105 149.131 444.795 147.251C339.671 142.791 292.354 120.828 242.446 136.443C193.788 151.666 154.399 163.897 116.646 176.972C70.0267 193.114 64.749 198.346 31.4295 219.404C3.12422 252.204 -88.8851 276.141 -140.223 289.763C-189.634 302.881 -192.445 303.543 -225.51 333.505C-268.707 372.654 -284.126 389.933 -323.352 425.781C-356.428 456.407 -393.831 483.237 -434.289 505.357" stroke="white" stroke-width="0.190763" stroke-miterlimit="10"/>
<path d="M760.111 80.4898C722.359 110.94 666.552 142.086 600.153 154.782C539.883 166.302 500.461 153.963 453.945 152.306C354.529 148.769 309.438 130.613 259.239 145.974C204.51 162.729 160.282 174.609 116.541 187.144C64.1507 202.145 50.7955 201.363 16.3607 227.803C-19.3187 255.195 -99.8478 283 -147.352 296.502C-192.906 309.487 -195.438 310.782 -229.139 343.828C-271.466 385.41 -286.122 401.326 -321.836 434.321C-344.039 454.832 -378.3 484.189 -431.936 512.713" stroke="white" stroke-width="0.190763" stroke-miterlimit="10"/>
<path d="M763.955 88.4208C725.471 119.892 671.657 149.214 609.453 161.05C549.676 172.422 511.887 158.885 463.156 157.489C369.479 154.792 326.684 140.296 276.081 155.638C215.329 174.049 166.151 185.553 116.51 197.439C58.2354 211.388 40.8203 208.951 1.36506 236.324C-36.2287 262.444 -110.773 289.909 -154.43 303.374C-196.15 316.239 -198.534 318.071 -232.712 354.294C-274.202 398.246 -288.014 412.873 -320.201 442.962C-342 463.344 -375.679 492.419 -429.46 520.179" stroke="white" stroke-width="0.190763" stroke-miterlimit="10"/>
<path d="M767.841 96.443C728.613 128.997 676.805 156.433 618.801 167.419C559.515 178.642 523.379 163.886 472.415 162.772C384.484 160.844 343.933 149.988 292.982 165.398C226.197 185.593 172.023 196.652 116.525 207.834C52.2803 220.784 30.9826 216.856 -13.5835 244.945C-53.1266 269.866 -121.629 296.964 -161.45 310.341C-199.275 323.034 -201.587 325.452 -236.227 364.854C-276.964 411.172 -289.836 424.542 -318.519 451.703C-339.921 471.972 -372.978 500.79 -426.941 527.736" stroke="white" stroke-width="0.190763" stroke-miterlimit="10"/>
<path d="M771.789 104.584C731.865 138.119 681.997 163.767 628.204 173.897C569.407 184.963 534.932 168.95 481.73 168.164C399.569 166.938 359.878 154.887 309.927 175.272C239.11 204.17 177.921 207.887 116.597 218.338C46.3401 230.321 14.4354 217.08 -28.4758 253.676C-64.306 284.278 -132.409 304.052 -168.424 317.424C-202.366 329.982 -204.636 332.922 -239.701 375.52C-279.739 424.185 -291.56 436.346 -316.78 460.553C-337.771 480.713 -370.24 509.258 -424.362 535.412" stroke="white" stroke-width="0.190763" stroke-miterlimit="10"/>
<path d="M775.862 112.99C735.215 147.564 687.319 171.343 637.75 180.7C579.451 191.603 546.643 174.286 491.198 173.877C414.762 173.317 377.613 165.551 327.038 185.461C250.04 215.752 183.931 219.473 116.811 229.168C40.4957 240.206 6.25243 226.214 -43.2267 262.732C-82.47 291.705 -143.086 311.562 -175.235 324.82C-205.317 337.223 -207.642 340.72 -243.007 386.51C-282.415 437.521 -293.118 448.497 -314.9 469.729C-335.462 489.783 -367.354 518.036 -421.645 543.404" stroke="white" stroke-width="0.190763" stroke-miterlimit="10"/>
<path d="M780.194 121.926C738.835 157.533 692.928 179.479 647.516 187.928C589.705 198.673 558.581 179.999 500.875 180.019C430.277 180.037 395.57 176.64 344.346 196.085C261.102 227.689 190.132 231.509 117.249 240.431C34.8064 250.524 -1.76285 236.418 -57.7521 272.221C-100.325 299.446 -153.517 319.428 -181.847 332.652C-208.051 344.879 -210.469 348.94 -246.115 397.935C-284.925 451.285 -294.472 461.126 -312.795 479.338C-332.916 499.314 -364.311 527.281 -418.704 551.829" stroke="white" stroke-width="0.190763" stroke-miterlimit="10"/>
<path d="M784.601 131.018C742.518 167.663 698.59 187.759 657.383 195.365C600.056 205.944 570.622 185.841 510.653 186.371C445.836 186.939 413.652 187.903 361.766 206.914C272.273 239.707 196.407 243.757 117.785 251.896C29.1494 261.085 -9.75842 247.334 -72.1811 281.912C-117.992 307.287 -163.873 327.483 -188.347 340.688C-210.67 352.716 -213.248 357.35 -249.11 409.565C-287.396 465.278 -295.575 473.982 -310.589 489.158C-330.232 509.071 -361.037 536.685 -415.661 560.464" stroke="white" stroke-width="0.190763" stroke-miterlimit="10"/>
<path d="M789.396 140.913C746.585 178.589 704.65 196.77 667.635 203.598C610.785 213.911 583.07 192.377 520.816 193.518C461.79 194.596 432.126 199.947 379.56 218.543C283.818 252.413 203.048 256.82 118.75 264.133C24.0142 272.375 -15.8497 263.432 -86.1796 292.375C-136.292 313.008 -173.787 336.305 -194.428 349.503C-212.914 361.329 -215.642 366.555 -251.691 421.963C-289.458 480.055 -296.3 487.591 -307.961 499.731C-327.061 519.63 -357.41 546.875 -412.192 569.863" stroke="white" stroke-width="0.190763" stroke-miterlimit="10"/>
<path d="M794.145 150.708C750.622 189.417 710.66 205.762 677.832 211.744C621.483 221.894 595.495 198.687 530.937 200.574C477.699 202.13 450.577 211.879 397.323 230.075C295.304 264.934 209.631 269.787 119.575 276.337C18.6264 283.664 -24.8655 274.132 -100.319 302.806C-152.716 322.741 -183.896 345.041 -200.632 358.265C-215.296 369.886 -218.217 375.702 -254.39 434.319C-291.71 494.788 -297.093 501.2 -305.47 510.282C-323.89 530.245 -353.917 557.019 -408.869 579.22" stroke="white" stroke-width="0.190763" stroke-miterlimit="10"/>
<path d="M798.896 160.512C754.679 200.234 716.603 214.797 688.04 219.885C632.224 229.856 607.928 204.814 541.055 207.63C493.589 209.627 469.037 223.806 415.072 241.613C306.789 277.341 216.183 282.725 120.451 288.505C13.2942 294.925 -33.9348 284.813 -114.407 313.2C-169.27 332.559 -194.017 353.727 -206.803 367.01C-217.712 378.346 -220.741 384.813 -257.056 446.657C-293.935 509.52 -297.79 514.808 -302.927 520.795C-320.291 541.048 -350.364 567.145 -405.485 588.559" stroke="white" stroke-width="0.190763" stroke-miterlimit="10"/>
</svg>
