<svg xmlns="http://www.w3.org/2000/svg" width="509" height="509" viewBox="0 0 509 509" fill="none">
    <rect x="107" y="46" width="293" height="415" fill="white" />
    <path d="M315 192H192V210H315V192Z" fill="black" />
    <path
        d="M164.757 173.973C164.757 154.524 180.655 138.789 200.243 138.789C219.831 138.789 235.729 154.551 235.729 173.973H253.486C253.486 155.074 243.442 138.514 228.349 129.188C232.566 114.444 246.106 103.55 262.337 103.55C281.953 103.55 297.851 119.313 297.851 138.761V147.564H315.608C330.313 147.564 342.243 159.393 342.243 173.973H360C360 149.682 340.134 129.986 315.608 129.986C315.33 129.986 315.108 130.041 314.831 130.069C310.614 105.063 288.778 86 262.365 86C238.726 86 218.694 101.295 211.73 122.476C208.039 121.679 204.183 121.211 200.243 121.211C170.833 121.211 147 144.841 147 174H164.757V173.973Z"
        fill="black" />
    <path
        d="M253.486 289.503V210H244.672L183 342.497H253.486V422H262.3L324 289.503H253.486ZM210.682 324.823L235.885 270.698V307.177H296.318L271.115 361.302V324.823H210.682Z"
        fill="black" />
    <path d="M95 476H413V33H95V476ZM112.673 50.72H395.327V458.28H112.673V50.72Z" fill="black" />
</svg>