<svg width="137" height="60" viewBox="0 0 137 60" fill="none" xmlns="http://www.w3.org/2000/svg">
<path d="M58.2846 37.0645L50.579 25.4347V37.0645H48.6048V22.7976H51.2419L58.3669 33.7452V22.7976H60.3387V37.0645H58.2846Z" fill="white"/>
<path d="M65.0854 22.3549C65.8499 22.3549 66.4524 22.9597 66.4524 23.7242C66.4524 24.4694 65.8499 25.0718 65.0854 25.0718C64.3403 25.0718 63.7379 24.467 63.7379 23.7242C63.7379 22.9597 64.3403 22.3549 65.0854 22.3549ZM64.1612 27.3871H66.0314V37.067H64.1612V27.3871Z" fill="white"/>
<path d="M69.6532 37.0645V27.3871H71.4653V28.6742C72.0677 27.6072 73.275 27.104 74.4024 27.104C75.6097 27.104 76.7782 27.6871 77.3008 28.9355C78.0653 27.5467 79.3137 27.104 80.5403 27.104C82.2314 27.104 83.8814 28.2508 83.8814 30.7863V37.0645H82.0088V30.9871C82.0088 29.7193 81.3846 28.7734 79.9572 28.7734C78.629 28.7734 77.7242 29.8185 77.7242 31.2072V37.0621H75.8322V30.9847C75.8322 29.7363 75.2274 28.7709 73.7806 28.7709C72.433 28.7709 71.5258 29.7774 71.5258 31.2266V37.0621H69.6532V37.0645Z" fill="white"/>
<path d="M87.3 37.0645V22.4951H89.1702V28.754C89.6322 27.8879 90.7597 27.104 92.3685 27.104C95.3056 27.104 96.8153 29.3588 96.8153 32.175C96.8153 35.054 95.1847 37.3258 92.3081 37.3258C90.8806 37.3258 89.7726 36.7016 89.1702 35.6564V37.0645H87.3ZM92.0298 28.7758C90.3605 28.7758 89.1532 30.0822 89.1532 32.175C89.1532 34.2677 90.3605 35.6371 92.0298 35.6371C93.7597 35.6371 94.8871 34.2677 94.8871 32.175C94.8871 30.0822 93.779 28.7758 92.0298 28.7758Z" fill="white"/>
<path d="M103.055 37.3669C100.8 37.3669 99.433 35.6758 99.433 33.4839V27.3871H101.325V33.2008C101.325 34.529 101.93 35.6976 103.519 35.6976C105.048 35.6976 105.813 34.6911 105.813 33.2226V27.3871H107.705V35.2742C107.705 36.0387 107.765 36.7234 107.806 37.0645H105.994C105.953 36.8443 105.914 36.3 105.914 35.8984C105.389 36.9048 104.182 37.3669 103.055 37.3669Z" fill="white"/>
<path d="M112.13 33.946C112.251 34.9525 113.015 35.7581 114.382 35.7581C115.449 35.7581 116.032 35.1533 116.032 34.471C116.032 33.8662 115.589 33.4041 114.784 33.2226L113.134 32.8597C111.624 32.5379 110.719 31.5121 110.719 30.1428C110.719 28.4928 112.27 27.0847 114.16 27.0847C116.816 27.0847 117.641 28.8146 117.842 29.6807L116.173 30.3049C116.093 29.8017 115.689 28.696 114.16 28.696C113.194 28.696 112.551 29.3202 112.551 29.9831C112.551 30.5662 112.914 30.9896 113.659 31.1517L115.229 31.4928C116.981 31.875 117.905 32.942 117.905 34.3718C117.905 35.7412 116.758 37.3694 114.363 37.3694C111.706 37.3694 110.579 35.6589 110.419 34.5508L112.13 33.946Z" fill="white"/>
<path d="M35.2524 24.45H24.4185V25.9983H35.2524V24.45Z" fill="white"/>
<path d="M22.096 22.9041C22.096 21.1936 23.4823 19.8097 25.1903 19.8097C26.9008 19.8097 28.2847 21.196 28.2847 22.9041H29.8331C29.8331 21.242 28.9573 19.7855 27.6411 18.9654C28.0089 17.6686 29.1895 16.7105 30.6048 16.7105C32.3153 16.7105 33.7016 18.0968 33.7016 19.8073V20.5815H35.2476C36.5298 20.5815 37.5702 21.6218 37.5702 22.9041H39.1186C39.1186 20.7678 37.3863 19.0355 35.2476 19.0355C35.2234 19.0355 35.204 19.0404 35.1798 19.0428C34.8121 16.8436 32.9081 15.167 30.6048 15.167C28.5436 15.167 26.7968 16.5122 26.1895 18.3751C25.8677 18.3049 25.5315 18.2638 25.1879 18.2638C22.6234 18.2638 20.5452 20.342 20.5452 22.9065H22.096V22.9041Z" fill="white"/>
<path d="M29.8355 32.9637V25.9984H29.0613L23.6443 37.6065H29.8355V44.5718H30.6097L36.029 32.9637H29.8355ZM26.0734 36.0605L28.2871 31.3186V34.5145H33.5976L31.3839 39.2565V36.0605H26.0734Z" fill="white"/>
<path d="M15.9048 49.2169H43.7661V10.5072H15.9048V49.2169ZM17.4508 12.0556H42.2177V47.6685H17.4508V12.0556Z" fill="white"/>
</svg>
