<svg width="508" height="542" viewBox="0 0 508 542" fill="none" xmlns="http://www.w3.org/2000/svg">
<path d="M315 209H192V227H315V209Z" fill="#27326F"/>
<path d="M164.757 190.973C164.757 171.524 180.655 155.789 200.243 155.789C219.831 155.789 235.729 171.551 235.729 190.973H253.486C253.486 172.074 243.442 155.514 228.349 146.189C232.566 131.444 246.106 120.55 262.337 120.55C281.953 120.55 297.851 136.313 297.851 155.761V164.564H315.608C330.313 164.564 342.243 176.393 342.243 190.973H360C360 166.682 340.134 146.986 315.608 146.986C315.33 146.986 315.108 147.041 314.831 147.069C310.614 122.063 288.778 103 262.365 103C238.726 103 218.694 118.295 211.73 139.476C208.039 138.679 204.183 138.211 200.243 138.211C170.833 138.211 147 161.841 147 191H164.757V190.973Z" fill="#27326F"/>
<path d="M253.486 306.503V227H244.672L183 359.497H253.486V439H262.3L324 306.503H253.486ZM210.682 341.823L235.885 287.698V324.177H296.318L271.115 378.302V341.823H210.682Z" fill="#27326F"/>
<path d="M95 493H413V50H95V493ZM112.673 67.72H395.327V475.28H112.673V67.72Z" fill="#27326F"/>
</svg>
