<svg width="533" height="248" viewBox="0 0 533 248" fill="none" xmlns="http://www.w3.org/2000/svg">
<path d="M240.91 153.2L209.06 105.13V153.2H200.9V94.23H211.8L241.25 139.48V94.23H249.4V153.2H240.91Z" fill="black"/>
<path d="M269.02 92.4C272.18 92.4 274.67 94.9 274.67 98.06C274.67 101.14 272.18 103.63 269.02 103.63C265.94 103.63 263.45 101.13 263.45 98.06C263.45 94.9 265.94 92.4 269.02 92.4ZM265.2 113.2H272.93V153.21H265.2V113.2Z" fill="black"/>
<path d="M287.9 153.2V113.2H295.39V118.52C297.88 114.11 302.87 112.03 307.53 112.03C312.52 112.03 317.35 114.44 319.51 119.6C322.67 113.86 327.83 112.03 332.9 112.03C339.89 112.03 346.71 116.77 346.71 127.25V153.2H338.97V128.08C338.97 122.84 336.39 118.93 330.49 118.93C325 118.93 321.26 123.25 321.26 128.99V153.19H313.44V128.07C313.44 122.91 310.94 118.92 304.96 118.92C299.39 118.92 295.64 123.08 295.64 129.07V153.19H287.9V153.2Z" fill="black"/>
<path d="M360.84 153.2V92.98H368.57V118.85C370.48 115.27 375.14 112.03 381.79 112.03C393.93 112.03 400.17 121.35 400.17 132.99C400.17 144.89 393.43 154.28 381.54 154.28C375.64 154.28 371.06 151.7 368.57 147.38V153.2H360.84ZM380.39 118.94C373.49 118.94 368.5 124.34 368.5 132.99C368.5 141.64 373.49 147.3 380.39 147.3C387.54 147.3 392.2 141.64 392.2 132.99C392.2 124.34 387.62 118.94 380.39 118.94Z" fill="black"/>
<path d="M425.96 154.45C416.64 154.45 410.99 147.46 410.99 138.4V113.2H418.81V137.23C418.81 142.72 421.31 147.55 427.88 147.55C434.2 147.55 437.36 143.39 437.36 137.32V113.2H445.18V145.8C445.18 148.96 445.43 151.79 445.6 153.2H438.11C437.94 152.29 437.78 150.04 437.78 148.38C435.61 152.54 430.62 154.45 425.96 154.45Z" fill="black"/>
<path d="M463.47 140.31C463.97 144.47 467.13 147.8 472.78 147.8C477.19 147.8 479.6 145.3 479.6 142.48C479.6 139.98 477.77 138.07 474.44 137.32L467.62 135.82C461.38 134.49 457.64 130.25 457.64 124.59C457.64 117.77 464.05 111.95 471.86 111.95C482.84 111.95 486.25 119.1 487.08 122.68L480.18 125.26C479.85 123.18 478.18 118.61 471.86 118.61C467.87 118.61 465.21 121.19 465.21 123.93C465.21 126.34 466.71 128.09 469.79 128.76L476.28 130.17C483.52 131.75 487.34 136.16 487.34 142.07C487.34 147.73 482.6 154.46 472.7 154.46C461.72 154.46 457.06 147.39 456.4 142.81L463.47 140.31Z" fill="black"/>
<path d="M145.71 101.06H100.93V107.46H145.71V101.06Z" fill="#010101"/>
<path d="M91.33 94.67C91.33 87.6 97.06 81.88 104.12 81.88C111.19 81.88 116.91 87.61 116.91 94.67H123.31C123.31 87.8 119.69 81.78 114.25 78.39C115.77 73.03 120.65 69.07 126.5 69.07C133.57 69.07 139.3 74.8 139.3 81.87V85.07H145.69C150.99 85.07 155.29 89.37 155.29 94.67H161.69C161.69 85.84 154.53 78.68 145.69 78.68C145.59 78.68 145.51 78.7 145.41 78.71C143.89 69.62 136.02 62.69 126.5 62.69C117.98 62.69 110.76 68.25 108.25 75.95C106.92 75.66 105.53 75.49 104.11 75.49C93.51 75.49 84.92 84.08 84.92 94.68H91.33V94.67Z" fill="#010101"/>
<path d="M123.32 136.25V107.46H120.12L97.73 155.44H123.32V184.23H126.52L148.92 136.25H123.32ZM107.77 149.05L116.92 129.45V142.66H138.87L129.72 162.26V149.05H107.77Z" fill="#010101"/>
<path d="M65.74 203.43H180.9V43.43H65.74V203.43ZM72.13 49.83H174.5V197.03H72.13V49.83Z" fill="#010101"/>
</svg>
