<svg width="28" height="28" viewBox="0 0 28 28" fill="none" xmlns="http://www.w3.org/2000/svg">
<path d="M14.0007 10.6666C14.9173 10.6666 15.6673 9.91659 15.6673 8.99992C15.6673 8.08325 14.9173 7.33325 14.0007 7.33325C13.084 7.33325 12.334 8.08325 12.334 8.99992C12.334 9.91659 13.084 10.6666 14.0007 10.6666ZM14.0007 12.3333C13.084 12.3333 12.334 13.0833 12.334 13.9999C12.334 14.9166 13.084 15.6666 14.0007 15.6666C14.9173 15.6666 15.6673 14.9166 15.6673 13.9999C15.6673 13.0833 14.9173 12.3333 14.0007 12.3333ZM14.0007 17.3333C13.084 17.3333 12.334 18.0833 12.334 18.9999C12.334 19.9166 13.084 20.6666 14.0007 20.6666C14.9173 20.6666 15.6673 19.9166 15.6673 18.9999C15.6673 18.0833 14.9173 17.3333 14.0007 17.3333Z" fill="#B3B3B3"/>
</svg>
