<svg width="14" height="16" viewBox="0 0 14 16" fill="none" xmlns="http://www.w3.org/2000/svg">
<path d="M13.2741 8.03499C13.2745 8.22866 13.2249 8.41915 13.1299 8.58794C13.035 8.75673 12.898 8.89808 12.7322 8.99823L2.45956 15.2825C2.28636 15.3885 2.088 15.4464 1.88495 15.4502C1.6819 15.4539 1.48153 15.4034 1.30453 15.3038C1.12921 15.2058 0.983169 15.0629 0.881418 14.8897C0.779667 14.7165 0.725879 14.5194 0.725586 14.3185V1.75149C0.725879 1.55063 0.779667 1.35347 0.881418 1.1803C0.983169 1.00712 1.12921 0.864168 1.30453 0.766146C1.48153 0.666577 1.6819 0.616064 1.88495 0.619825C2.088 0.623585 2.28636 0.681482 2.45956 0.787536L12.7322 7.07175C12.898 7.17191 13.035 7.31326 13.1299 7.48205C13.2249 7.65084 13.2745 7.84133 13.2741 8.03499Z" fill="white"/>
</svg>
