<svg width="17" height="17" viewBox="0 0 17 17" fill="none" xmlns="http://www.w3.org/2000/svg">
<path d="M8.62012 0.0202646C8.13298 0.0197832 7.66242 0.197106 7.29675 0.518952C6.93108 0.840797 6.69545 1.28504 6.63408 1.76829C6.5727 2.25154 6.68981 2.74058 6.96342 3.14361C7.23703 3.54664 7.64833 3.83596 8.12012 3.95726V7.52026C8.12012 7.65287 8.1728 7.78005 8.26656 7.87382C8.36033 7.96759 8.48751 8.02026 8.62012 8.02026C8.75273 8.02026 8.8799 7.96759 8.97367 7.87382C9.06744 7.78005 9.12012 7.65287 9.12012 7.52026V3.95726C9.59191 3.83596 10.0032 3.54664 10.2768 3.14361C10.5504 2.74058 10.6675 2.25154 10.6062 1.76829C10.5448 1.28504 10.3091 0.840797 9.94348 0.518952C9.57781 0.197106 9.10725 0.0197832 8.62012 0.0202646ZM1.62012 3.02026C1.62012 2.75505 1.72547 2.50069 1.91301 2.31316C2.10055 2.12562 2.3549 2.02026 2.62012 2.02026C2.88533 2.02026 3.13969 2.12562 3.32722 2.31316C3.51476 2.50069 3.62012 2.75505 3.62012 3.02026V7.02026C3.62012 7.15287 3.6728 7.28005 3.76656 7.37382C3.86033 7.46759 3.98751 7.52026 4.12012 7.52026H6.62012C6.75273 7.52026 6.8799 7.46759 6.97367 7.37382C7.06744 7.28005 7.12012 7.15287 7.12012 7.02026C7.12012 6.88766 7.06744 6.76048 6.97367 6.66671C6.8799 6.57294 6.75273 6.52026 6.62012 6.52026H4.62012V3.02026C4.62012 2.48983 4.4094 1.98112 4.03433 1.60605C3.65926 1.23098 3.15055 1.02026 2.62012 1.02026C2.08968 1.02026 1.58098 1.23098 1.2059 1.60605C0.830831 1.98112 0.620117 2.48983 0.620117 3.02026V14.0203C0.620117 14.5507 0.830831 15.0594 1.2059 15.4345C1.58098 15.8096 2.08968 16.0203 2.62012 16.0203C3.15055 16.0203 3.65926 15.8096 4.03433 15.4345C4.4094 15.0594 4.62012 14.5507 4.62012 14.0203V10.5203H6.62012V14.0203C6.62012 14.5507 6.83083 15.0594 7.2059 15.4345C7.58098 15.8096 8.08968 16.0203 8.62012 16.0203C9.15055 16.0203 9.65926 15.8096 10.0343 15.4345C10.4094 15.0594 10.6201 14.5507 10.6201 14.0203V11.0203H15.1201C15.5179 11.0203 15.8995 10.8622 16.1808 10.5809C16.4621 10.2996 16.6201 9.91809 16.6201 9.52026V3.02026C16.6201 2.48983 16.4094 1.98112 16.0343 1.60605C15.6593 1.23098 15.1505 1.02026 14.6201 1.02026C14.0897 1.02026 13.581 1.23098 13.2059 1.60605C12.8308 1.98112 12.6201 2.48983 12.6201 3.02026V6.52026H10.6201C10.4875 6.52026 10.3603 6.57294 10.2666 6.66671C10.1728 6.76048 10.1201 6.88766 10.1201 7.02026C10.1201 7.15287 10.1728 7.28005 10.2666 7.37382C10.3603 7.46759 10.4875 7.52026 10.6201 7.52026H13.1201C13.2527 7.52026 13.3799 7.46759 13.4737 7.37382C13.5674 7.28005 13.6201 7.15287 13.6201 7.02026V3.02026C13.6201 2.75505 13.7255 2.50069 13.913 2.31316C14.1005 2.12562 14.3549 2.02026 14.6201 2.02026C14.8853 2.02026 15.1397 2.12562 15.3272 2.31316C15.5148 2.50069 15.6201 2.75505 15.6201 3.02026V9.52026C15.6201 9.65287 15.5674 9.78005 15.4737 9.87382C15.3799 9.96759 15.2527 10.0203 15.1201 10.0203H10.1201C9.98751 10.0203 9.86033 10.0729 9.76656 10.1667C9.6728 10.2605 9.62012 10.3877 9.62012 10.5203V14.0203C9.62012 14.2855 9.51476 14.5398 9.32722 14.7274C9.13969 14.9149 8.88533 15.0203 8.62012 15.0203C8.3549 15.0203 8.10055 14.9149 7.91301 14.7274C7.72547 14.5398 7.62012 14.2855 7.62012 14.0203V10.0203C7.62012 9.88766 7.56744 9.76048 7.47367 9.66671C7.3799 9.57294 7.25273 9.52026 7.12012 9.52026H4.12012C3.98751 9.52026 3.86033 9.57294 3.76656 9.66671C3.6728 9.76048 3.62012 9.88766 3.62012 10.0203V14.0203C3.62012 14.2855 3.51476 14.5398 3.32722 14.7274C3.13969 14.9149 2.88533 15.0203 2.62012 15.0203C2.3549 15.0203 2.10055 14.9149 1.91301 14.7274C1.72547 14.5398 1.62012 14.2855 1.62012 14.0203V3.02026Z" fill="white"/>
</svg>
