<svg width="20" height="20" viewBox="0 0 20 20" fill="none" xmlns="http://www.w3.org/2000/svg">
<g clip-path="url(#clip0_101_84)">
<path d="M10 10.8333C10.9205 10.8333 11.6667 10.0871 11.6667 9.16667C11.6667 8.24619 10.9205 7.5 10 7.5C9.07953 7.5 8.33334 8.24619 8.33334 9.16667C8.33334 10.0871 9.07953 10.8333 10 10.8333Z" stroke="white" stroke-width="1.5" stroke-linecap="round" stroke-linejoin="round"/>
<path d="M16.6667 10C16.6658 9.51996 16.6133 9.04137 16.51 8.57254L18.7717 6.86004L17.105 3.97337L14.4858 5.07837C13.7766 4.42806 12.9347 3.93932 12.0183 3.64587L11.6667 0.833374H8.33333L7.98167 3.64587C7.06525 3.93932 6.2234 4.42806 5.51417 5.07837L2.895 3.97337L1.22833 6.86004L3.49 8.57254C3.28083 9.51271 3.28083 10.4874 3.49 11.4275L1.22833 13.14L2.895 16.0267L5.51417 14.9217C6.2234 15.572 7.06525 16.0608 7.98167 16.3542L8.33333 19.1667H11.6667L12.0183 16.3542C12.9347 16.0608 13.7766 15.572 14.4858 14.9217L17.105 16.0267L18.7717 13.14L16.51 11.4275C16.6133 10.9587 16.6658 10.4801 16.6667 10Z" stroke="white" stroke-width="1.5" stroke-linecap="round" stroke-linejoin="round"/>
<path d="M10 10.8334V12.5" stroke="white" stroke-width="1.5" stroke-linecap="round" stroke-linejoin="round"/>
</g>
<defs>
<clipPath id="clip0_101_84">
<rect width="20" height="20" fill="white"/>
</clipPath>
</defs>
</svg>
