<svg width="24" height="24" viewBox="0 0 24 24" fill="none" xmlns="http://www.w3.org/2000/svg">
<path fill-rule="evenodd" clip-rule="evenodd" d="M12.3348 2.17798C13.448 2.17798 19.2902 4.18328 20.0624 4.95652C20.707 5.60105 20.6971 6.12178 20.652 8.62031C20.6343 9.6205 20.6097 10.9832 20.6097 12.8667C20.6097 19.6284 12.8771 22.0473 12.548 22.1465C12.4782 22.1682 12.4065 22.178 12.3348 22.178C12.2631 22.178 12.1913 22.1682 12.1216 22.1465C11.7924 22.0473 4.05986 19.6284 4.05986 12.8667C4.05986 10.9803 4.03529 9.61755 4.01761 8.61736C4.00954 8.17172 4.0026 7.78905 4.0003 7.45741L4 7.08317C4.00834 5.85368 4.12348 5.43992 4.60615 4.95652C5.3794 4.18328 11.2216 2.17798 12.3348 2.17798ZM12.3348 3.65175C11.5016 3.65175 6.24404 5.5028 5.63781 6.00879C5.52153 6.12571 5.47834 6.29975 5.47281 6.9904L5.47236 7.25635C5.47353 7.5934 5.48038 8.02721 5.49043 8.58985C5.5091 9.5979 5.53366 10.9685 5.53366 12.8667C5.53366 17.9768 11.1557 20.2454 12.3338 20.6629C13.5109 20.2434 19.1359 17.962 19.1359 12.8667C19.1359 10.9705 19.1605 9.60085 19.1781 8.59279C19.1885 8.02963 19.1955 7.59543 19.1966 7.25789L19.196 6.99148C19.1898 6.29944 19.1439 6.12295 19.02 5.99896C18.4245 5.5028 13.168 3.65175 12.3348 3.65175ZM11.0092 9.58336L12.3349 10.9096L13.6603 9.58336C13.9482 9.29549 14.4139 9.29549 14.7018 9.58336C14.9897 9.87124 14.9897 10.3369 14.7018 10.6248L13.3763 11.951L14.7016 13.2756C14.9895 13.5635 14.9895 14.0292 14.7016 14.3171C14.5582 14.4615 14.3695 14.5333 14.1809 14.5333C13.9922 14.5333 13.8036 14.4615 13.6601 14.3171L12.3349 12.9925L11.0094 14.3171C10.866 14.4615 10.6773 14.5333 10.4887 14.5333C10.3 14.5333 10.1114 14.4615 9.96795 14.3171C9.68007 14.0292 9.68007 13.5635 9.96795 13.2756L11.2934 11.951L9.96775 10.6248C9.67987 10.3369 9.67987 9.87124 9.96775 9.58336C10.2556 9.29549 10.7214 9.29549 11.0092 9.58336Z" fill="#F25F5C"/>
</svg>
