<svg width="24" height="24" viewBox="0 0 24 24" fill="none" xmlns="http://www.w3.org/2000/svg">
<path fill-rule="evenodd" clip-rule="evenodd" d="M12.4822 2.17798C13.5954 2.17798 19.4366 4.18328 20.2099 4.95652C20.8544 5.60105 20.8446 6.12178 20.7994 8.61736C20.7817 9.61755 20.7572 10.9803 20.7572 12.8667C20.7572 19.6284 13.0246 22.0473 12.6954 22.1465C12.6257 22.1682 12.554 22.178 12.4822 22.178C12.4105 22.178 12.3388 22.1682 12.269 22.1465C11.9399 22.0473 4.20729 19.6284 4.20729 12.8667C4.20729 10.9832 4.18272 9.6205 4.16504 8.62031C4.15697 8.17414 4.15003 7.79104 4.14774 7.45904L4.14746 7.08441C4.15589 5.85368 4.2714 5.43992 4.75554 4.95652C5.52684 4.18328 11.368 2.17798 12.4822 2.17798ZM12.4822 3.65175C11.649 3.65175 6.39245 5.5028 5.78623 6.00879C5.60741 6.18859 5.60053 6.50103 5.63885 8.59279C5.65653 9.60085 5.6811 10.9705 5.6811 12.8667C5.6811 17.9768 11.3032 20.2454 12.4812 20.6629C13.6583 20.2434 19.2834 17.962 19.2834 12.8667C19.2834 10.9685 19.3079 9.5979 19.3266 8.58985C19.3639 6.50005 19.357 6.18761 19.1674 5.99896C18.573 5.5028 13.3154 3.65175 12.4822 3.65175ZM16.1387 9.38912C16.4266 9.677 16.4266 10.1437 16.1387 10.4316L12.3088 14.2624C12.1988 14.3732 12.0566 14.445 11.9041 14.4693L11.7881 14.4785C11.5925 14.4785 11.4049 14.4009 11.2663 14.2624L9.40737 12.4015C9.12047 12.1136 9.12047 11.6459 9.40835 11.3591C9.69526 11.0712 10.1629 11.0712 10.4508 11.3591L11.7881 12.6982L15.0973 9.38912C15.3851 9.10124 15.8509 9.10124 16.1387 9.38912Z" fill="#00A878"/>
</svg>
