<svg width="25" height="24" viewBox="0 0 25 24" fill="none" xmlns="http://www.w3.org/2000/svg">
<path d="M12.5 3.42856L12.5 15.4286" stroke="white" stroke-width="2.05714" stroke-miterlimit="10"/>
<path d="M9.07141 6.85713L12.5 3.42856L15.9286 6.85713" stroke="white" stroke-width="2.05714" stroke-miterlimit="10" stroke-linecap="square"/>
<path d="M16.7857 10.2857L19.3572 10.2857C19.8118 10.2857 20.2479 10.4663 20.5693 10.7878C20.8908 11.1093 21.0714 11.5453 21.0714 12L21.0714 18.8571C21.0714 19.3118 20.8908 19.7478 20.5693 20.0693C20.2479 20.3908 19.8118 20.5714 19.3572 20.5714L5.64287 20.5714C5.18822 20.5714 4.75218 20.3908 4.43069 20.0693C4.1092 19.7478 3.92859 19.3118 3.92859 18.8571L3.92859 12C3.92859 11.5453 4.1092 11.1093 4.43069 10.7878C4.75218 10.4663 5.18822 10.2857 5.64287 10.2857L8.2143 10.2857" stroke="white" stroke-width="2.05714" stroke-miterlimit="10" stroke-linecap="square"/>
</svg>
