<?xml version="1.0" standalone="no"?>
<!DOCTYPE svg PUBLIC "-//W3C//DTD SVG 20010904//EN"
 "http://www.w3.org/TR/2001/REC-SVG-20010904/DTD/svg10.dtd">
<svg version="1.0" xmlns="http://www.w3.org/2000/svg"
 width="980.000000pt" height="981.000000pt" viewBox="0 0 980.000000 981.000000"
 preserveAspectRatio="xMidYMid meet">

<g transform="translate(0.000000,981.000000) scale(0.100000,-0.100000)"
fill="#1E96FC" stroke="none">
<path d="M5890 9770 c-97 -39 -2426 -952 -2821 -1106 l-216 -84 -1095 0
c-1064 0 -1097 -1 -1173 -20 -317 -81 -527 -348 -575 -733 -14 -109 -14 -6963
0 -7062 34 -244 105 -399 250 -546 72 -73 99 -93 180 -132 176 -85 -242 -78
4280 -75 l4025 3 56 27 c99 49 162 128 205 258 17 51 19 110 22 878 2 588 0
834 -9 864 -16 59 -67 108 -113 108 -55 0 -95 -25 -117 -73 -18 -40 -19 -78
-19 -842 0 -517 -4 -813 -10 -837 -6 -20 -22 -46 -37 -58 l-26 -20 -4007 0
c-3655 0 -4011 1 -4061 16 -174 52 -285 170 -346 370 -17 56 -18 198 -20 3151
l-3 3092 67 -51 c72 -54 159 -99 245 -126 49 -15 373 -17 4090 -22 l4036 -5
26 -24 c14 -14 30 -41 36 -60 6 -23 10 -357 10 -893 l0 -857 -757 -3 -758 -3
-62 -29 c-102 -47 -169 -131 -210 -261 -17 -56 -18 -113 -18 -930 0 -816 1
-874 18 -930 40 -130 108 -213 215 -263 l57 -27 1120 0 c1283 0 1178 -7 1285
92 68 63 104 128 125 228 21 101 22 2005 1 2106 -38 179 -154 296 -316 319
-97 14 -157 -21 -179 -105 -26 -98 38 -195 129 -195 52 0 97 -32 110 -77 8
-27 10 -327 8 -1021 l-3 -984 -33 -29 -32 -29 -1089 0 c-1081 0 -1088 0 -1114
20 -15 12 -31 38 -37 58 -13 50 -14 1623 0 1673 6 20 20 45 31 55 20 18 53 19
849 24 l829 5 35 34 c25 24 38 49 46 85 8 36 10 334 8 1016 -3 903 -5 969 -22
1020 -43 130 -106 209 -205 258 l-56 27 -4035 5 -4035 5 -62 21 c-89 31 -143
65 -201 129 -58 63 -103 150 -129 245 -25 92 -25 339 0 430 59 217 201 357
394 389 47 8 273 11 733 9 l664 -3 -94 -37 c-546 -214 -687 -270 -707 -283
-34 -22 -55 -71 -55 -126 1 -85 53 -149 121 -149 25 0 784 292 2375 915 1287
503 2350 922 2363 930 84 56 84 214 -1 266 -43 26 -77 23 -186 -21z"/>
<path d="M5211 8655 c-1042 -377 -1904 -691 -1916 -699 -50 -33 -72 -145 -40
-206 23 -44 62 -70 106 -70 26 0 343 110 942 326 496 179 1170 422 1497 541
327 118 738 266 913 329 176 64 320 114 322 112 1 -2 80 -275 175 -608 95
-333 179 -618 189 -634 69 -123 231 -68 231 79 0 22 -31 150 -70 285 -38 135
-70 249 -70 253 0 4 147 6 328 5 324 -3 327 -3 360 -26 18 -13 42 -42 55 -65
21 -40 22 -55 27 -357 3 -212 9 -322 17 -335 55 -95 166 -92 215 6 16 30 18
69 18 349 0 333 -4 374 -51 479 -46 104 -158 209 -257 243 -25 8 -158 14 -422
18 l-384 5 -82 287 c-45 158 -91 298 -101 312 -16 22 -79 57 -101 56 -4 -1
-859 -309 -1901 -685z"/>
<path d="M8152 3964 c-97 -48 -152 -149 -152 -279 0 -130 55 -231 152 -279
122 -61 257 -6 325 132 24 50 28 69 28 147 0 78 -4 97 -28 147 -68 138 -203
193 -325 132z"/>
</g>
</svg>
