<?xml version="1.0" standalone="no"?>
<!DOCTYPE svg PUBLIC "-//W3C//DTD SVG 20010904//EN"
 "http://www.w3.org/TR/2001/REC-SVG-20010904/DTD/svg10.dtd">
<svg version="1.0" xmlns="http://www.w3.org/2000/svg"
 width="64.000000pt" height="64.000000pt" viewBox="0 0 64.000000 64.000000"
 preserveAspectRatio="xMidYMid meet">

<g transform="translate(0.000000,64.000000) scale(0.100000,-0.100000)"
fill="#fff" stroke="none">
<path d="M261 585 c-170 -18 -206 -25 -218 -40 -10 -15 -13 -72 -13 -245 0
-218 1 -228 21 -246 20 -18 39 -19 269 -19 230 0 249 1 269 19 20 18 21 29 21
198 0 165 -1 179 -20 198 -11 11 -29 20 -40 20 -17 0 -20 7 -20 48 0 52 -13
77 -45 85 -11 2 -112 -6 -224 -18z m237 -17 c7 -7 12 -31 12 -55 l0 -43 -214
0 c-118 0 -221 -3 -230 -6 -12 -5 -16 1 -16 24 0 16 6 35 14 41 13 11 291 47
382 50 22 0 45 -4 52 -11z m72 -138 c12 -12 20 -33 20 -55 l0 -35 -75 0 c-112
0 -145 -21 -145 -95 0 -25 8 -40 31 -59 27 -23 39 -26 110 -26 l79 0 0 -28 c0
-15 -7 -38 -16 -50 -15 -22 -18 -22 -254 -22 -236 0 -239 0 -254 22 -13 18
-16 53 -16 175 0 209 -23 193 270 193 217 0 231 -1 250 -20z m20 -180 l0 -60
-79 0 c-58 0 -84 4 -95 15 -25 25 -29 54 -12 80 15 23 22 25 101 25 l85 0 0
-60z"/>
</g>
</svg>
