<svg width="512" height="512" viewBox="0 0 64 64" xmlns="http://www.w3.org/2000/svg">
    <path fill="#fff" d="M31.238 26.684c0-1.062-.836-1.917-1.867-1.917s-1.865.855-1.865 1.917c0 .452.159.864.416 1.193c.975-.339 2.396-.775 3.275-.796c.027-.128.041-.261.041-.397m-1.867 1.936c.799.235 1.994.212 2.242 1.913c.473-1.344-.115-2.687-2.242-1.913"/>
    <path fill="#fff" d="M59.639 7c-.947 0-1.622.537-2.404 1.159c-1.077.856-2.553 2.029-4.65 2.029c-1.164 0-2.439-.834-3.465-1.504c-.978-.64-1.822-1.191-2.814-1.191c-.924 0-2.123.553-2.461 2.112c-.459 2.115.977 4.295 1.872 5.406c.347.431.75.868 1.193 1.281c-4.957 1.642-16.24 4.134-39.056 4.134c-4.005 0-5.453 3.882-5.664 5.959c-.043.359-.411 3.573.012 6.266C3.664 42.004 11.051 52 27.398 52c.623 0 1.213-.006 1.781-.017c.952 1.877 2.227 3.214 3.41 2.947c1.01-.229 1.75-1.584 2.17-3.326a23.886 23.886 0 0 0 1.537-.262C37.664 54.383 39.783 57 42.41 57c.281 0 .561-.031.833-.093c3.888-.878 5.198-7.426 4.77-12.405c6.587-6.497 8.327-21.283 8.707-25.76c4.649-2.179 5.28-5.747 5.28-8.684C62 7.221 60.193 7 59.639 7M27.398 50C11.166 50 5.357 39.887 4.177 32.341c-.4-2.548 0-5.734 0-5.734v-.002c.443-.01.886-.021 1.328-.029c.026 3.039.545 6.152 1.669 9.002c1.126 2.904 2.897 5.549 5.153 7.639c2.246 2.105 4.93 3.657 7.749 4.725c2.824 1.076 5.783 1.704 8.753 2.047c-.463.005-.929.011-1.431.011m1.432-.013c-2.951-.489-5.861-1.26-8.588-2.456c-2.725-1.188-5.256-2.831-7.306-4.95a19.537 19.537 0 0 1-4.531-7.463c-.929-2.752-1.273-5.645-1.156-8.569a77.605 77.605 0 0 1 3.014.028c-.117 3.452.689 6.883 2.222 9.906a21.276 21.276 0 0 0 6.703 7.739c2.789 1.98 5.996 3.272 9.289 3.943c2.264.47 4.566.633 6.862.602c.067.225.141.45.217.676c-1.743.323-3.879.501-6.726.544M17.884 36.615c1.736 2.972 4.233 5.43 7.118 7.173c2.885 1.748 6.17 2.786 9.496 2.983c.117.007.234.003.353.008c.114.596.263 1.217.447 1.85c-2.272-.072-4.532-.337-6.726-.894c-3.211-.804-6.273-2.207-8.866-4.226c-2.597-2.009-4.697-4.638-6.041-7.606c-1.314-2.898-1.91-6.113-1.665-9.244c1.116.069 2.227.172 3.33.322a18.558 18.558 0 0 0 2.554 9.634m-.827-9.349c.18.033.361.06.54.098c.9.178 1.78.423 2.649.703c.014 4.618 2.783 9.595 7.238 12.994a20.029 20.029 0 0 0 7.099 3.473c.022.479.063.979.142 1.518c.014.097.035.199.051.298c-.08-.008-.162-.009-.243-.018a20.165 20.165 0 0 1-9.065-3.291c-2.689-1.795-4.945-4.238-6.439-7.075a16.992 16.992 0 0 1-1.972-8.7m37.757-9.898c-.086 2.465-1.46 17.51-7.213 24.599v-.001a11.977 11.977 0 0 1-1.691 1.727c.668 4.582-.564 10.689-3.106 11.264c-.13.028-.261.043-.394.043c-2.439 0-5.072-4.892-5.707-9.239c-.1-.679-.139-1.301-.135-1.879c-.422-.041-.799-.1-1.132-.164a19.064 19.064 0 0 1-7.346-3.452c-4.101-3.13-6.685-7.639-6.831-11.855c.908.332 1.808.701 2.696 1.114c1.036.444 2.081 1.023 3.298 1.133c1.236.076 2.331-.546 3.188-1.277c-.973.576-2.068 1.059-3.141.846c-1.065-.173-2.041-.785-3.049-1.313a22.98 22.98 0 0 0-6.479-2.413a30.648 30.648 0 0 0-6.868-.582c-2.261.048-4.511.27-6.727.675c.017-.158.468-4.165 3.674-4.165c35.545 0 43.586-5.932 43.586-5.932c-2.357 0-6.121-4.254-5.642-6.465c.083-.383.257-.537.507-.537c1.049 0 3.449 2.695 6.279 2.695c4.045 0 6.248-3.188 7.055-3.188c.249-.002.364.292.364 1.057c0 3.237-.863 5.736-5.186 7.309"/>
</svg>