<svg width="1224" height="795" viewBox="0 0 618 564" fill="none" stroke="#ccc" xmlns="http://www.w3.org/2000/svg">
<path opacity="0.5" d="M87.4399 574.396C179.095 733.147 329.577 829.849 423.55 790.386C517.524 750.923 519.404 590.239 427.749 431.488C336.094 272.736 185.612 176.034 91.6383 215.497C-2.33543 254.961 -4.21512 415.645 87.4399 574.396ZM87.4399 574.396C159.84 699.796 273.286 778.459 340.83 750.095C408.373 721.731 404.437 597.081 332.037 471.681C259.637 346.281 146.191 267.617 78.6471 295.981C11.1035 324.346 15.0402 448.996 87.4399 574.396ZM87.4399 574.396C148.731 680.555 232.341 752.368 274.189 734.794C316.036 717.221 300.275 616.916 238.984 510.757C177.693 404.598 94.0824 332.785 52.2348 350.359C10.3871 367.932 26.149 468.237 87.4399 574.396ZM87.4399 574.396C143.902 672.192 215.861 740.474 248.165 726.909C280.468 713.343 260.884 623.067 204.421 525.271C147.959 427.475 75.9996 359.193 43.6962 372.759C11.3927 386.324 30.9774 476.6 87.4399 574.396ZM504.85 399.11C368.76 163.395 147.737 18.7968 11.1812 76.1416C-125.374 133.486 -125.752 371.059 10.3386 606.774C146.429 842.489 367.452 987.087 504.007 929.742C640.563 872.397 640.94 634.825 504.85 399.11ZM504.85 399.11C350.986 132.609 94.128 -27.948 -68.8576 40.4958C-231.843 108.94 -239.238 380.466 -85.3732 646.967C68.4911 913.468 325.349 1074.02 488.334 1005.58C651.32 937.137 658.714 665.611 504.85 399.11ZM504.85 399.11C339.877 113.368 51.9928 -53.5395 -138.157 26.3116C-328.307 106.163 -348.717 402.534 -183.744 688.276C-18.7706 974.018 269.113 1140.93 459.263 1061.07C649.413 981.223 669.823 684.852 504.85 399.11ZM504.85 399.11C335.818 106.338 34.5263 -62.019 -168.105 23.0733C-370.735 108.166 -397.973 414.485 -228.941 707.256C-59.9093 1000.03 241.383 1168.39 444.013 1083.29C646.644 998.201 673.882 691.881 504.85 399.11ZM498.145 387.497L203.034 511.425M160.751 678.489C116.799 731.093 -2.92378 837.833 -130.198 843.955M241.588 746.985C275.088 799.288 192.488 953.732 10.8305 979.517M302.981 781.804C403.781 847.688 314.119 1067.14 128.993 1058.31M297.624 1104.37C420.062 1087.58 549.698 874.426 306.206 755.921M590.492 919.338C571.132 851.478 484.369 722.369 321.51 753.822M616.591 787.178C573.973 730.527 447.153 640.172 280.809 731.957M599.445 663.078C557.129 626.02 431.059 578.539 265.307 685.082M566.29 531.273C506.558 523.171 358.679 526.98 245.018 607.03M34.9505 460.596C-40.7373 458.232 -212.936 474.081 -296.227 556.384M20.58 364.188C-7.60346 309.652 -201.503 271.32 -336.227 378.396M25.6531 301.457C25.882 193.147 -232.741 119.952 -337.409 250.478M-277.395 108.405C-187.14 35.8744 90.0002 78.2071 51.6738 315.059M73.1337 23.2471C124.397 77.71 191.486 215.081 62.9558 305.993M211.872 86.1855C238.538 149.535 245.186 290.356 58.46 346.838M316.754 173.442C325.393 224.642 292.653 338.814 92.5729 385.898M419.034 276.219C390.144 321.537 296.439 419.178 152.741 447.202M80.7351 562.783L-235.646 695.643" 
stroke="#ccc" stroke-width="1.49545"/>
</svg>
