<svg width="465" height="311" viewBox="0 0 465 311" fill="none" xmlns="http://www.w3.org/2000/svg">
<path d="M369.618 29.4737C369.368 29.3567 369.071 29.4646 368.954 29.7147C368.837 29.9648 368.945 30.2624 369.195 30.3795L369.618 29.4737ZM128.297 47.0129L128.07 46.5675L128.297 47.0129ZM176.076 28.3029C176.206 28.0589 176.113 27.7562 175.869 27.6269L171.893 25.5183C171.649 25.3889 171.347 25.4818 171.217 25.7258C171.088 25.9697 171.181 26.2724 171.425 26.4018L174.958 28.276L173.084 31.8097C172.955 32.0537 173.048 32.3563 173.292 32.4857C173.536 32.6151 173.838 32.5222 173.968 32.2783L176.076 28.3029ZM410.958 75.9184C415.096 100.057 399.283 125.399 370.061 146.858C340.865 168.297 298.412 185.753 249.62 194.116L249.789 195.101C298.701 186.718 341.307 169.213 370.652 147.664C399.971 126.135 416.18 100.463 411.944 75.7495L410.958 75.9184ZM249.62 194.116C200.829 202.479 154.985 200.156 120.317 189.663C85.6164 179.16 62.2671 160.53 58.1299 136.392L57.1442 136.561C61.38 161.274 85.213 180.083 120.027 190.62C154.874 201.167 200.878 203.485 249.789 195.101L249.62 194.116ZM369.195 30.3795C392.504 41.286 407.697 56.8898 410.958 75.9184L411.944 75.7495C408.605 56.2659 393.077 40.4504 369.618 29.4737L369.195 30.3795ZM58.1299 136.392C55.4438 120.72 61.1603 104.548 73.5126 89.2438C85.8653 73.939 104.826 59.5417 128.524 47.4584L128.07 46.5675C104.288 58.6934 85.2008 73.1701 72.7345 88.6157C60.2679 104.062 54.3944 120.517 57.1442 136.561L58.1299 136.392ZM128.524 47.4584C142.719 40.2207 158.607 33.8166 175.781 28.5466L175.488 27.5906C158.263 32.8762 142.32 39.3015 128.07 46.5675L128.524 47.4584Z" fill="black"/>
<path d="M388.249 -38.0624C378.094 -0.874426 339.714 21.0397 302.526 10.8842C339.714 21.0397 361.628 59.4192 351.473 96.6072C361.628 59.4192 400.008 37.505 437.196 47.6606C400.008 37.505 378.094 -0.874426 388.249 -38.0624Z" fill="black"/>
</svg>
