<svg width="339" height="193" viewBox="0 0 339 193" fill="none" xmlns="http://www.w3.org/2000/svg">
<path d="M-29.4556 281.079C-29.205 281.195 -28.9079 281.085 -28.792 280.835C-28.6762 280.584 -28.7855 280.287 -29.0362 280.171L-29.4556 281.079ZM211.779 262.385L212.008 262.829L211.779 262.385ZM164.09 281.323C163.962 281.568 164.056 281.87 164.301 281.998L168.286 284.088C168.531 284.216 168.833 284.122 168.961 283.877C169.089 283.633 168.995 283.33 168.751 283.202L165.208 281.345L167.065 277.802C167.193 277.558 167.099 277.255 166.855 277.127C166.61 276.999 166.308 277.093 166.18 277.338L164.09 281.323ZM-71.0174 234.833C-75.2701 210.714 -59.579 185.297 -30.4595 163.698C-1.36697 142.12 41.0021 124.46 89.7532 115.864L89.5795 114.879C40.7088 123.497 -1.81354 141.206 -31.0553 162.895C-60.2701 184.564 -76.3561 210.314 -72.0022 235.006L-71.0174 234.833ZM89.7532 115.864C138.504 107.268 184.358 109.371 219.076 119.698C253.827 130.035 277.265 148.553 281.518 172.671L282.502 172.497C278.149 147.805 254.226 129.11 219.361 118.74C184.465 108.36 138.45 106.262 89.5795 114.879L89.7532 115.864ZM-29.0362 280.171C-52.397 269.376 -67.6649 253.845 -71.0174 234.833L-72.0022 235.006C-68.5696 254.474 -52.9667 270.215 -29.4556 281.079L-29.0362 280.171ZM281.518 172.671C284.279 188.33 278.64 204.529 266.361 219.892C254.082 235.256 235.19 249.744 211.55 261.941L212.008 262.829C235.732 250.59 254.75 236.022 267.142 220.517C279.534 205.011 285.329 188.528 282.502 172.497L281.518 172.671ZM211.55 261.941C197.39 269.246 181.533 275.726 164.384 281.078L164.682 282.033C181.882 276.665 197.793 270.163 212.008 262.829L211.55 261.941Z" fill="black"/>
</svg>
