<svg width="316" height="289" viewBox="0 0 316 289" fill="none" xmlns="http://www.w3.org/2000/svg">
<path d="M165.125 159.005C209.521 129.35 234.766 83.778 221.511 57.2164C208.256 30.6548 161.52 33.1623 117.124 62.8169C72.7284 92.4716 47.4837 138.044 60.7388 164.605C73.9939 191.167 120.729 188.66 165.125 159.005ZM165.125 159.005C200.194 135.58 220.9 101.114 211.373 82.0232C201.846 62.9321 165.694 66.4451 130.625 89.8698C95.5555 113.294 74.8496 147.76 84.3767 166.851C93.9038 185.943 130.056 182.43 165.125 159.005ZM165.125 159.005C194.813 139.174 214.095 113.51 208.193 101.682C202.29 89.8536 173.438 96.3407 143.75 116.171C114.062 136.002 94.7797 161.666 100.682 173.494C106.585 185.322 135.437 178.835 165.125 159.005ZM165.125 159.005C192.474 140.737 210.952 118.526 206.395 109.395C201.839 100.264 175.974 107.672 148.625 125.94C121.276 144.208 102.798 166.42 107.355 175.55C111.911 184.681 137.776 177.273 165.125 159.005ZM106.249 41.0244C40.3296 85.0559 2.50565 152.04 21.7669 190.637C41.0282 229.234 110.081 224.829 176 180.797C241.92 136.766 279.744 69.782 260.482 31.1848C241.221 -7.41249 172.169 -3.00715 106.249 41.0244ZM106.249 41.0244C31.7202 90.8066 -10.061 168.508 12.9283 214.576C35.9176 260.644 114.972 257.633 189.501 207.85C264.029 158.068 305.811 80.3662 282.821 34.2985C259.832 -11.7692 180.778 -8.7579 106.249 41.0244ZM106.249 41.0244C26.3393 94.4009 -16.6978 181.241 10.123 234.986C36.9438 288.732 123.466 289.031 203.376 235.655C283.286 182.278 326.323 95.4385 299.502 41.6928C272.681 -12.0528 186.159 -12.3521 106.249 41.0244ZM106.249 41.0244C24.3734 95.714 -18.8303 186.478 9.75096 243.751C38.3322 301.025 127.875 303.119 209.751 248.43C291.627 193.74 334.83 102.976 306.249 45.7026C277.668 -11.5707 188.125 -13.6653 106.249 41.0244ZM103.001 43.1937L144.627 126.607M193.984 135.72C210.108 147.494 243.405 180.261 247.603 217.134M212.355 110.925C226.919 100.195 273.375 121.266 284.321 173.571M221.308 92.4205C238.54 61.8729 304.023 83.7608 304.975 137.732M315.156 87.8471C307.95 52.5821 243.538 18.9571 213.724 91.9753M255.815 6.24753C236.461 13.1637 200.587 40.8332 212.823 87.5671M216.91 1.17413C201.255 14.6366 177.405 53.2116 207.242 99.8117M181.168 8.51555C171.202 21.5182 159.799 59.0604 193.913 105.208M143.492 20.6564C142.273 38.1703 146.19 81.076 171.615 112.588M133.049 176.423C133.801 198.465 141.679 248.209 167.182 270.852M105.303 182.431C89.9888 191.659 82.5336 248.74 116.213 285.86M86.9753 182.149C55.4928 184.141 39.1353 260.695 79.0591 288.634M36.6278 273.893C13.8331 249.04 20.8693 167.691 90.4338 174.328M5.21685 173.637C20.0711 157.703 58.7201 135.595 87.5844 171.222M20.8719 132.119C38.7765 123.166 79.5767 118.557 99.5407 171.752M44.238 99.9795C58.9541 96.4955 92.758 103.841 110.244 161.095M72.1642 68.3005C85.8839 75.8355 116.042 101.213 126.918 142.444M161.877 161.174L206.503 250.599" stroke="black" stroke-width="0.5"/>
</svg>
